<?xml version="1.0" encoding="UTF-8"?>
<svg width="1441px" height="1911px" viewBox="0 0 1441 1911" version="1.1" xmlns="http://www.w3.org/2000/svg" xmlns:xlink="http://www.w3.org/1999/xlink">
    <title>Group 2</title>
    <g id="Page-1" stroke="none" stroke-width="1" fill="none" fill-rule="evenodd">
        <g id="Event-List" transform="translate(0.000000, -84.000000)">
            <g id="Group-2" transform="translate(0.000000, 84.000000)">
                <polygon id="Fill-1" fill="#E8F0F6" transform="translate(1187.700831, 136.500000) scale(-1, 1) translate(-1187.700831, -136.500000) " points="1167.75623 156 1207.64543 156 1207.64543 117 1167.75623 117"></polygon>
                <polygon id="Fill-2" fill="#E8F0F6" transform="translate(1034.626039, 136.500000) scale(-1, 1) translate(-1034.626039, -136.500000) " points="1015.18006 156 1054.07202 156 1054.07202 117 1015.18006 117"></polygon>
                <polygon id="Fill-9" fill="#B6B5CA" transform="translate(1340.277008, 213.000000) scale(-1, 1) translate(-1340.277008, -213.000000) " points="1320.33241 232 1360.22161 232 1360.22161 194 1320.33241 194"></polygon>
                <polygon id="Fill-9-Copy" fill="#B6B5CA" transform="translate(55.844875, 1565.000000) scale(-1, 1) translate(-55.844875, -1565.000000) " points="35.900277 1584 75.7894737 1584 75.7894737 1546 35.900277 1546"></polygon>
                <polygon id="Fill-11" fill="#B6B5CA" transform="translate(1148.808864, 213.000000) scale(-1, 1) translate(-1148.808864, -213.000000) " points="1128.86427 232 1168.75346 232 1168.75346 194 1128.86427 194"></polygon>
                <polygon id="Fill-13" fill="#B6B5CA" transform="translate(1263.988920, 251.500000) scale(-1, 1) translate(-1263.988920, -251.500000) " points="1244.54294 271 1283.4349 271 1283.4349 232 1244.54294 232"></polygon>
                <polygon id="Fill-14" fill="#E8F0F6" transform="translate(1187.700831, 251.500000) scale(-1, 1) translate(-1187.700831, -251.500000) " points="1167.75623 271 1207.64543 271 1207.64543 232 1167.75623 232"></polygon>
                <polygon id="Fill-19" fill="#E8F0F6" transform="translate(1148.808864, 290.000000) scale(-1, 1) translate(-1148.808864, -290.000000) " points="1128.86427 309 1168.75346 309 1168.75346 271 1128.86427 271"></polygon>
                <polygon id="Fill-20" fill="#B6B5CA" transform="translate(1034.626039, 290.000000) scale(-1, 1) translate(-1034.626039, -290.000000) " points="1015.18006 309 1054.07202 309 1054.07202 271 1015.18006 271"></polygon>
                <polygon id="Fill-21" fill="#B6B5CA" transform="translate(1340.277008, 329.000000) scale(-1, 1) translate(-1340.277008, -329.000000) " points="1320.33241 348 1360.22161 348 1360.22161 310 1320.33241 310"></polygon>
                <polygon id="Fill-21-Copy" fill="#B6B5CA" transform="translate(95.734072, 1738.000000) scale(-1, 1) translate(-95.734072, -1738.000000) " points="75.7894737 1757 115.67867 1757 115.67867 1719 75.7894737 1719"></polygon>
                <polygon id="Fill-24" fill="#E8F0F6" transform="translate(1187.700831, 329.000000) scale(-1, 1) translate(-1187.700831, -329.000000) " points="1167.75623 348 1207.64543 348 1207.64543 310 1167.75623 310"></polygon>
                <polygon id="Fill-25" fill="#B6B5CA" transform="translate(1148.808864, 329.000000) scale(-1, 1) translate(-1148.808864, -329.000000) " points="1128.86427 348 1168.75346 348 1168.75346 310 1128.86427 310"></polygon>
                <polygon id="Fill-26" fill="#E8F0F6" transform="translate(1111.412742, 329.000000) scale(-1, 1) translate(-1111.412742, -329.000000) " points="1091.96676 348 1130.85873 348 1130.85873 310 1091.96676 310"></polygon>
                <polygon id="Fill-29" fill="#E8F0F6" transform="translate(996.232687, 329.000000) scale(-1, 1) translate(-996.232687, -329.000000) " points="976.288089 348 1016.17729 348 1016.17729 310 976.288089 310"></polygon>
                <polygon id="Fill-30" fill="#B6B5CA" transform="translate(1417.063712, 367.000000) scale(-1, 1) translate(-1417.063712, -367.000000) " points="1398.11634 386 1436.01108 386 1436.01108 348 1398.11634 348"></polygon>
                <polygon id="Fill-31" fill="#E8F0F6" transform="translate(1340.277008, 367.000000) scale(-1, 1) translate(-1340.277008, -367.000000) " points="1320.33241 386 1360.22161 386 1360.22161 348 1320.33241 348"></polygon>
                <polygon id="Fill-31-Copy" fill="#E8F0F6" transform="translate(95.734072, 1776.000000) scale(-1, 1) translate(-95.734072, -1776.000000) " points="75.7894737 1795 115.67867 1795 115.67867 1757 75.7894737 1757"></polygon>
                <polygon id="Fill-32" fill="#B6B5CA" transform="translate(1302.382271, 367.000000) scale(-1, 1) translate(-1302.382271, -367.000000) " points="1282.43767 386 1322.32687 386 1322.32687 348 1282.43767 348"></polygon>
                <polygon id="Fill-32-Copy" fill="#B6B5CA" transform="translate(174.515235, 1776.000000) scale(-1, 1) translate(-174.515235, -1776.000000) " points="154.570637 1795 194.459834 1795 194.459834 1757 154.570637 1757"></polygon>
                <polygon id="Fill-34" fill="#E8F0F6" transform="translate(1073.019391, 367.000000) scale(-1, 1) translate(-1073.019391, -367.000000) " points="1053.07479 386 1092.96399 386 1092.96399 348 1053.07479 348"></polygon>
                <polygon id="Fill-35" fill="#B6B5CA" transform="translate(1034.626039, 367.000000) scale(-1, 1) translate(-1034.626039, -367.000000) " points="1015.18006 386 1054.07202 386 1054.07202 348 1015.18006 348"></polygon>
                <polygon id="Fill-36" fill="#B6B5CA" transform="translate(670.138504, 916.000000) scale(-1, 1) translate(-670.138504, -916.000000) " points="651.191136 935 689.085873 935 689.085873 897 651.191136 897"></polygon>
                <polygon id="Fill-37" fill="#E8F0F6" transform="translate(1340.277008, 406.000000) scale(-1, 1) translate(-1340.277008, -406.000000) " points="1320.33241 425 1360.22161 425 1360.22161 387 1320.33241 387"></polygon>
                <polygon id="Fill-37-Copy" fill="#E8F0F6" transform="translate(95.734072, 1815.000000) scale(-1, 1) translate(-95.734072, -1815.000000) " points="75.7894737 1834 115.67867 1834 115.67867 1796 75.7894737 1796"></polygon>
                <polygon id="Fill-40" fill="#E8F0F6" transform="translate(1226.094183, 406.000000) scale(-1, 1) translate(-1226.094183, -406.000000) " points="1206.6482 425 1245.54017 425 1245.54017 387 1206.6482 387"></polygon>
                <polygon id="Fill-41" fill="#B6B5CA" transform="translate(1187.700831, 406.000000) scale(-1, 1) translate(-1187.700831, -406.000000) " points="1167.75623 425 1207.64543 425 1207.64543 387 1167.75623 387"></polygon>
                <polygon id="Fill-46" fill="#B6B5CA" transform="translate(1302.382271, 444.500000) scale(-1, 1) translate(-1302.382271, -444.500000) " points="1282.43767 464 1322.32687 464 1322.32687 425 1282.43767 425"></polygon>
                <polygon id="Fill-46-Copy" fill="#B6B5CA" transform="translate(57.839335, 1853.500000) scale(-1, 1) translate(-57.839335, -1853.500000) " points="37.8947368 1873 77.7839335 1873 77.7839335 1834 37.8947368 1834"></polygon>
                <polygon id="Fill-47" fill="#E8F0F6" transform="translate(1148.808864, 444.500000) scale(-1, 1) translate(-1148.808864, -444.500000) " points="1128.86427 464 1168.75346 464 1168.75346 425 1128.86427 425"></polygon>
                <polygon id="Fill-49" fill="#B6B5CA" transform="translate(1302.382271, 19.000000) scale(-1, 1) translate(-1302.382271, -19.000000) " points="1282.43767 38 1322.32687 38 1322.32687 0 1282.43767 0"></polygon>
                <polygon id="Fill-50" fill="#E8F0F6" transform="translate(1263.988920, 19.000000) scale(-1, 1) translate(-1263.988920, -19.000000) " points="1244.54294 38 1283.4349 38 1283.4349 0 1244.54294 0"></polygon>
                <polygon id="Fill-52" fill="#E8F0F6" transform="translate(1073.019391, 19.000000) scale(-1, 1) translate(-1073.019391, -19.000000) " points="1053.07479 38 1092.96399 38 1092.96399 0 1053.07479 0"></polygon>
                <polygon id="Fill-54" fill="#E8F0F6" transform="translate(1226.094183, 58.500000) scale(-1, 1) translate(-1226.094183, -58.500000) " points="1206.6482 78 1245.54017 78 1245.54017 39 1206.6482 39"></polygon>
                <polygon id="Fill-55" fill="#B6B5CA" transform="translate(1187.700831, 58.500000) scale(-1, 1) translate(-1187.700831, -58.500000) " points="1167.75623 78 1207.64543 78 1207.64543 39 1167.75623 39"></polygon>
                <polygon id="Fill-56" fill="#B6B5CA" transform="translate(1111.412742, 58.500000) scale(-1, 1) translate(-1111.412742, -58.500000) " points="1091.96676 78 1130.85873 78 1130.85873 39 1091.96676 39"></polygon>
                <polygon id="Fill-57" fill="#E8F0F6" transform="translate(1034.626039, 58.500000) scale(-1, 1) translate(-1034.626039, -58.500000) " points="1015.18006 78 1054.07202 78 1054.07202 39 1015.18006 39"></polygon>
                <polygon id="Fill-58" fill="#B6B5CA" transform="translate(996.232687, 58.500000) scale(-1, 1) translate(-996.232687, -58.500000) " points="976.288089 78 1016.17729 78 1016.17729 39 976.288089 39"></polygon>
                <polygon id="Fill-60" fill="#B6B5CA" transform="translate(1302.382271, 97.000000) scale(-1, 1) translate(-1302.382271, -97.000000) " points="1282.43767 116 1322.32687 116 1322.32687 78 1282.43767 78"></polygon>
                <polygon id="Fill-60-Copy" fill="#B6B5CA" transform="translate(1420.055402, 19.000000) scale(-1, 1) translate(-1420.055402, -19.000000) " points="1400.1108 38 1440 38 1440 0 1400.1108 0"></polygon>
                <polygon id="Fill-61" fill="#E8F0F6" transform="translate(1148.808864, 97.000000) scale(-1, 1) translate(-1148.808864, -97.000000) " points="1128.86427 116 1168.75346 116 1168.75346 78 1128.86427 78"></polygon>
                <polygon id="Fill-70" fill="#B6B5CA" transform="translate(1263.490305, 1400.500000) scale(-1, 1) translate(-1263.490305, -1400.500000) " points="1243.54571 1420 1283.4349 1420 1283.4349 1381 1243.54571 1381"></polygon>
                <polygon id="Fill-74" fill="#B6B5CA" transform="translate(1380.166205, 714.500000) scale(-1, 1) translate(-1380.166205, -714.500000) " points="1360.22161 734 1400.1108 734 1400.1108 695 1360.22161 695"></polygon>
                <polygon id="Fill-75" fill="#B6B5CA" transform="translate(997.229917, 675.000000) scale(-1, 1) translate(-997.229917, -675.000000) " points="977.285319 694 1017.17452 694 1017.17452 656 977.285319 656"></polygon>
                <polygon id="Fill-75-Copy" fill="#B6B5CA" transform="translate(250.304709, 584.000000) scale(-1, 1) translate(-250.304709, -584.000000) " points="230.360111 603 270.249307 603 270.249307 565 230.360111 565"></polygon>
                <polygon id="Fill-79" fill="#B6B5CA" transform="translate(1417.063712, 483.000000) scale(-1, 1) translate(-1417.063712, -483.000000) " points="1398.11634 502 1436.01108 502 1436.01108 464 1398.11634 464"></polygon>
                <polygon id="Fill-81" fill="#E8F0F6" transform="translate(1302.382271, 483.000000) scale(-1, 1) translate(-1302.382271, -483.000000) " points="1282.43767 502 1322.32687 502 1322.32687 464 1282.43767 464"></polygon>
                <polygon id="Fill-81-Copy" fill="#E8F0F6" transform="translate(250.304709, 1892.000000) scale(-1, 1) translate(-250.304709, -1892.000000) " points="230.360111 1911 270.249307 1911 270.249307 1873 230.360111 1873"></polygon>
                <polygon id="Fill-110" fill="#E8F0F6" transform="translate(881.551247, 251.500000) scale(-1, 1) translate(-881.551247, -251.500000) " points="861.606648 271 901.495845 271 901.495845 232 861.606648 232"></polygon>
                <polygon id="Fill-113" fill="#E8F0F6" transform="translate(842.659280, 290.000000) scale(-1, 1) translate(-842.659280, -290.000000) " points="822.714681 309 862.603878 309 862.603878 271 822.714681 271"></polygon>
                <polygon id="Fill-115" fill="#E8F0F6" transform="translate(690.083102, 329.000000) scale(-1, 1) translate(-690.083102, -329.000000) " points="670.138504 348 710.027701 348 710.027701 310 670.138504 310"></polygon>
                <polygon id="Fill-117" fill="#E8F0F6" transform="translate(919.944598, 406.000000) scale(-1, 1) translate(-919.944598, -406.000000) " points="900.498615 425 939.390582 425 939.390582 387 900.498615 387"></polygon>
                <polygon id="Fill-121" fill="#E8F0F6" transform="translate(765.872576, 136.500000) scale(-1, 1) translate(-765.872576, -136.500000) " points="745.927978 156 785.817175 156 785.817175 117 745.927978 117"></polygon>
                <polygon id="Fill-127" fill="#B6B5CA" transform="translate(880.554017, 19.000000) scale(-1, 1) translate(-880.554017, -19.000000) " points="860.609418 38 900.498615 38 900.498615 0 860.609418 0"></polygon>
                <polygon id="Fill-129" fill="#E8F0F6" transform="translate(804.265928, 58.500000) scale(-1, 1) translate(-804.265928, -58.500000) " points="784.819945 78 823.711911 78 823.711911 39 784.819945 39"></polygon>
                <polygon id="Fill-130" fill="#B6B5CA" transform="translate(765.872576, 58.500000) scale(-1, 1) translate(-765.872576, -58.500000) " points="745.927978 78 785.817175 78 785.817175 39 745.927978 39"></polygon>
                <polygon id="Fill-131" fill="#B6B5CA" transform="translate(689.584488, 58.500000) scale(-1, 1) translate(-689.584488, -58.500000) " points="670.138504 78 709.030471 78 709.030471 39 670.138504 39"></polygon>
                <polygon id="Fill-134" fill="#E8F0F6" transform="translate(1263.988920, 367.000000) scale(-1, 1) translate(-1263.988920, -367.000000) " points="1244.54294 386 1283.4349 386 1283.4349 348 1244.54294 348"></polygon>
                <polygon id="Fill-65" fill="#B6B5CA" transform="translate(1148.808864, 1440.000000) scale(-1, 1) translate(-1148.808864, -1440.000000) " points="1128.86427 1459 1168.75346 1459 1168.75346 1421 1128.86427 1421"></polygon>
                <polygon id="Fill-76" fill="#B6B5CA" transform="translate(1148.808864, 1362.000000) scale(-1, 1) translate(-1148.808864, -1362.000000) " points="1128.86427 1381 1168.75346 1381 1168.75346 1343 1128.86427 1343"></polygon>
                <polygon id="Fill-42" fill="#B6B5CA" transform="translate(135.124654, 886.000000) scale(-1, 1) translate(-135.124654, -886.000000) " points="115.67867 905 154.570637 905 154.570637 867 115.67867 867"></polygon>
                <polygon id="Fill-44" fill="#E8F0F6" transform="translate(59.335180, 1107.000000) scale(-1, 1) translate(-59.335180, -1107.000000) " points="39.8891967 1126 78.7811634 1126 78.7811634 1088 39.8891967 1088"></polygon>
                <polygon id="Fill-45" fill="#B6B5CA" transform="translate(19.944598, 886.000000) scale(-1, 1) translate(-19.944598, -886.000000) " points="0 905 39.8891967 905 39.8891967 867 0 867"></polygon>
                <polygon id="Fill-86" fill="#B6B5CA" transform="translate(19.944598, 963.000000) scale(-1, 1) translate(-19.944598, -963.000000) " points="0 982 39.8891967 982 39.8891967 944 0 944"></polygon>
                <polygon id="Fill-107" fill="#E8F0F6" transform="translate(58.337950, 1295.000000) scale(-1, 1) translate(-58.337950, -1295.000000) " points="38.8919668 1314 77.7839335 1314 77.7839335 1276 38.8919668 1276"></polygon>
                <polygon id="Fill-71" fill="#B6B5CA" transform="translate(1339.778393, 1400.500000) scale(-1, 1) translate(-1339.778393, -1400.500000) " points="1320.33241 1420 1359.22438 1420 1359.22438 1381 1320.33241 1381"></polygon>
                <polygon id="Fill-73" fill="#E8F0F6" transform="translate(1416.565097, 1476.500000) scale(-1, 1) translate(-1416.565097, -1476.500000) " points="1397.11911 1496 1436.01108 1496 1436.01108 1457 1397.11911 1457"></polygon>
                <polygon id="Fill-77" fill="#E8F0F6" transform="translate(1302.382271, 1362.000000) scale(-1, 1) translate(-1302.382271, -1362.000000) " points="1282.43767 1381 1322.32687 1381 1322.32687 1343 1282.43767 1343"></polygon>
                <polygon id="Fill-88" fill="#B6B5CA" transform="translate(1377.174515, 1167.500000) scale(-1, 1) translate(-1377.174515, -1167.500000) " points="1357.22992 1187 1397.11911 1187 1397.11911 1148 1357.22992 1148"></polygon>
                <polygon id="Fill-98" fill="#B6B5CA" transform="translate(1415.069252, 1286.500000) scale(-1, 1) translate(-1415.069252, -1286.500000) " points="1395.12465 1306 1435.01385 1306 1435.01385 1267 1395.12465 1267"></polygon>
                <polygon id="Fill-100" fill="#B6B5CA" transform="translate(1300.886427, 1286.500000) scale(-1, 1) translate(-1300.886427, -1286.500000) " points="1281.44044 1306 1320.33241 1306 1320.33241 1267 1281.44044 1267"></polygon>
                <polygon id="Fill-102" fill="#E8F0F6" transform="translate(1415.069252, 1325.000000) scale(-1, 1) translate(-1415.069252, -1325.000000) " points="1395.12465 1344 1435.01385 1344 1435.01385 1306 1395.12465 1306"></polygon>
                <polygon id="Fill-103" fill="#E8F0F6" transform="translate(1338.781163, 1325.000000) scale(-1, 1) translate(-1338.781163, -1325.000000) " points="1319.33518 1344 1358.22715 1344 1358.22715 1306 1319.33518 1306"></polygon>
                <polygon id="Fill-13-Copy" fill="#B6B5CA" transform="translate(19.445983, 1660.500000) scale(-1, 1) translate(-19.445983, -1660.500000) " points="0 1680 38.8919668 1680 38.8919668 1641 0 1641"></polygon>
                <polygon id="Fill-134-Copy" fill="#E8F0F6" transform="translate(19.445983, 1776.000000) scale(-1, 1) translate(-19.445983, -1776.000000) " points="0 1795 38.8919668 1795 38.8919668 1757 0 1757"></polygon>
            </g>
        </g>
    </g>
</svg>