<?xml version="1.0" encoding="UTF-8"?>
<svg width="1448px" height="1989px" viewBox="0 0 1448 1989" version="1.1" xmlns="http://www.w3.org/2000/svg" xmlns:xlink="http://www.w3.org/1999/xlink">
    <title>bkg</title>
    <g id="Page-1" stroke="none" stroke-width="1" fill="none" fill-rule="evenodd">
        <g id="Event-Details" transform="translate(3.000000, -83.000000)">
            <g id="bkg" transform="translate(-2.000000, 84.000000)">
                <polygon id="Fill-1" fill="#E8F0F6" transform="translate(1193.000000, 141.500000) scale(-1, 1) translate(-1193.000000, -141.500000) " points="1173 162 1213 162 1213 121 1173 121"></polygon>
                <polygon id="Fill-2" fill="#E8F0F6" transform="translate(1039.500000, 141.500000) scale(-1, 1) translate(-1039.500000, -141.500000) " points="1020 162 1059 162 1059 121 1020 121"></polygon>
                <polygon id="Fill-3" fill="#F7CA18" transform="translate(1423.000000, 181.500000) scale(-1, 1) translate(-1423.000000, -181.500000) " points="1404 201 1442 201 1442 162 1404 162"></polygon>
                <polygon id="Fill-4" fill="#CB295F" transform="translate(1193.000000, 181.500000) scale(-1, 1) translate(-1193.000000, -181.500000) " points="1173 201 1213 201 1213 162 1173 162"></polygon>
                <polygon id="Fill-5" fill="#F7CA18" transform="translate(1154.000000, 181.500000) scale(-1, 1) translate(-1154.000000, -181.500000) " points="1134 201 1174 201 1174 162 1134 162"></polygon>
                <polygon id="Fill-6" fill="#CB295F" transform="translate(1116.500000, 181.500000) scale(-1, 1) translate(-1116.500000, -181.500000) " points="1097 201 1136 201 1136 162 1097 162"></polygon>
                <polygon id="Fill-7" fill="#1292B9" transform="translate(1078.000000, 181.500000) scale(-1, 1) translate(-1078.000000, -181.500000) " points="1058 201 1098 201 1098 162 1058 162"></polygon>
                <polygon id="Fill-8" fill="#F7CA18" transform="translate(961.500000, 181.500000) scale(-1, 1) translate(-961.500000, -181.500000) " points="942 201 981 201 981 162 942 162"></polygon>
                <polygon id="Fill-9" fill="#B6B5CA" transform="translate(1346.000000, 221.000000) scale(-1, 1) translate(-1346.000000, -221.000000) " points="1326 241 1366 241 1366 201 1326 201"></polygon>
                <polygon id="Fill-9-Copy" fill="#B6B5CA" transform="translate(58.000000, 1627.000000) scale(-1, 1) translate(-58.000000, -1627.000000) " points="38 1647 78 1647 78 1607 38 1607"></polygon>
                <polygon id="Fill-10" fill="#F7CA18" transform="translate(1269.500000, 221.000000) scale(-1, 1) translate(-1269.500000, -221.000000) " points="1250 241 1289 241 1289 201 1250 201"></polygon>
                <polygon id="Fill-11" fill="#B6B5CA" transform="translate(1154.000000, 221.000000) scale(-1, 1) translate(-1154.000000, -221.000000) " points="1134 241 1174 241 1174 201 1134 201"></polygon>
                <polygon id="Fill-12" fill="#1292B9" transform="translate(1346.000000, 261.500000) scale(-1, 1) translate(-1346.000000, -261.500000) " points="1326 282 1366 282 1366 241 1326 241"></polygon>
                <polygon id="Fill-12-Copy" fill="#1292B9" transform="translate(98.000000, 1726.500000) scale(-1, 1) translate(-98.000000, -1726.500000) " points="78 1747 118 1747 118 1706 78 1706"></polygon>
                <polygon id="Fill-13" fill="#B6B5CA" transform="translate(1269.500000, 261.500000) scale(-1, 1) translate(-1269.500000, -261.500000) " points="1250 282 1289 282 1289 241 1250 241"></polygon>
                <polygon id="Fill-14" fill="#E8F0F6" transform="translate(1193.000000, 261.500000) scale(-1, 1) translate(-1193.000000, -261.500000) " points="1173 282 1213 282 1213 241 1173 241"></polygon>
                <polygon id="Fill-15" fill="#F7CA18" transform="translate(1116.500000, 261.500000) scale(-1, 1) translate(-1116.500000, -261.500000) " points="1097 282 1136 282 1136 241 1097 241"></polygon>
                <polygon id="Fill-16" fill="#FF576F" transform="translate(1001.000000, 261.500000) scale(-1, 1) translate(-1001.000000, -261.500000) " points="981 282 1021 282 1021 241 981 241"></polygon>
                <polygon id="Fill-17" fill="#F7CA18" transform="translate(1231.500000, 302.000000) scale(-1, 1) translate(-1231.500000, -302.000000) " points="1212 322 1251 322 1251 282 1212 282"></polygon>
                <polygon id="Fill-18" fill="#1292B9" transform="translate(1193.000000, 302.000000) scale(-1, 1) translate(-1193.000000, -302.000000) " points="1173 322 1213 322 1213 282 1173 282"></polygon>
                <polygon id="Fill-19" fill="#E8F0F6" transform="translate(1154.000000, 302.000000) scale(-1, 1) translate(-1154.000000, -302.000000) " points="1134 322 1174 322 1174 282 1134 282"></polygon>
                <polygon id="Fill-20" fill="#B6B5CA" transform="translate(1039.500000, 302.000000) scale(-1, 1) translate(-1039.500000, -302.000000) " points="1020 322 1059 322 1059 282 1020 282"></polygon>
                <polygon id="Fill-21" fill="#B6B5CA" transform="translate(1346.000000, 342.000000) scale(-1, 1) translate(-1346.000000, -342.000000) " points="1326 362 1366 362 1366 322 1326 322"></polygon>
                <polygon id="Fill-21-Copy" fill="#B6B5CA" transform="translate(98.000000, 1807.000000) scale(-1, 1) translate(-98.000000, -1807.000000) " points="78 1827 118 1827 118 1787 78 1787"></polygon>
                <polygon id="Fill-22" fill="#F7CA18" transform="translate(1308.000000, 342.000000) scale(-1, 1) translate(-1308.000000, -342.000000) " points="1288 362 1328 362 1328 322 1288 322"></polygon>
                <polygon id="Fill-22-Copy" fill="#F7CA18" transform="translate(329.000000, 1807.000000) scale(-1, 1) translate(-329.000000, -1807.000000) " points="309 1827 349 1827 349 1787 309 1787"></polygon>
                <polygon id="Fill-23" fill="#CB295F" transform="translate(213.500000, 1277.000000) scale(-1, 1) translate(-213.500000, -1277.000000) " points="194 1297 233 1297 233 1257 194 1257"></polygon>
                <polygon id="Fill-24" fill="#E8F0F6" transform="translate(1193.000000, 342.000000) scale(-1, 1) translate(-1193.000000, -342.000000) " points="1173 362 1213 362 1213 322 1173 322"></polygon>
                <polygon id="Fill-25" fill="#B6B5CA" transform="translate(1154.000000, 342.000000) scale(-1, 1) translate(-1154.000000, -342.000000) " points="1134 362 1174 362 1174 322 1134 322"></polygon>
                <polygon id="Fill-25-Copy" fill="#B6B5CA" transform="translate(516.000000, 342.000000) scale(-1, 1) translate(-516.000000, -342.000000) " points="496 362 536 362 536 322 496 322"></polygon>
                <polygon id="Fill-26" fill="#E8F0F6" transform="translate(1116.500000, 342.000000) scale(-1, 1) translate(-1116.500000, -342.000000) " points="1097 362 1136 362 1136 322 1097 322"></polygon>
                <polygon id="Fill-27" fill="#CB295F" transform="translate(1078.000000, 342.000000) scale(-1, 1) translate(-1078.000000, -342.000000) " points="1058 362 1098 362 1098 322 1058 322"></polygon>
                <polygon id="Fill-28" fill="#1292B9" transform="translate(1039.500000, 342.000000) scale(-1, 1) translate(-1039.500000, -342.000000) " points="1020 362 1059 362 1059 322 1020 322"></polygon>
                <polygon id="Fill-29" fill="#E8F0F6" transform="translate(1001.000000, 342.000000) scale(-1, 1) translate(-1001.000000, -342.000000) " points="981 362 1021 362 1021 322 981 322"></polygon>
                <polygon id="Fill-30" fill="#B6B5CA" transform="translate(1423.000000, 382.000000) scale(-1, 1) translate(-1423.000000, -382.000000) " points="1404 402 1442 402 1442 362 1404 362"></polygon>
                <polygon id="Fill-31" fill="#E8F0F6" transform="translate(1346.000000, 382.000000) scale(-1, 1) translate(-1346.000000, -382.000000) " points="1326 402 1366 402 1366 362 1326 362"></polygon>
                <polygon id="Fill-31-Copy" fill="#E8F0F6" transform="translate(98.000000, 1847.000000) scale(-1, 1) translate(-98.000000, -1847.000000) " points="78 1867 118 1867 118 1827 78 1827"></polygon>
                <polygon id="Fill-32" fill="#B6B5CA" transform="translate(1308.000000, 382.000000) scale(-1, 1) translate(-1308.000000, -382.000000) " points="1288 402 1328 402 1328 362 1288 362"></polygon>
                <polygon id="Fill-33" fill="#F7CA18" transform="translate(1231.500000, 382.000000) scale(-1, 1) translate(-1231.500000, -382.000000) " points="1212 402 1251 402 1251 362 1212 362"></polygon>
                <polygon id="Fill-34" fill="#E8F0F6" transform="translate(1078.000000, 390.000000) scale(-1, 1) translate(-1078.000000, -390.000000) " points="1058 410 1098 410 1098 370 1058 370"></polygon>
                <polygon id="Fill-35" fill="#B6B5CA" transform="translate(1039.500000, 382.000000) scale(-1, 1) translate(-1039.500000, -382.000000) " points="1020 402 1059 402 1059 362 1020 362"></polygon>
                <polygon id="Fill-36" fill="#B6B5CA" transform="translate(963.000000, 382.000000) scale(-1, 1) translate(-963.000000, -382.000000) " points="944 402 982 402 982 362 944 362"></polygon>
                <polygon id="Fill-37" fill="#E8F0F6" transform="translate(1346.000000, 422.000000) scale(-1, 1) translate(-1346.000000, -422.000000) " points="1326 442 1366 442 1366 402 1326 402"></polygon>
                <polygon id="Fill-37-Copy" fill="#E8F0F6" transform="translate(98.000000, 1887.000000) scale(-1, 1) translate(-98.000000, -1887.000000) " points="78 1907 118 1907 118 1867 78 1867"></polygon>
                <polygon id="Fill-38" fill="#F7CA18" transform="translate(1308.000000, 422.000000) scale(-1, 1) translate(-1308.000000, -422.000000) " points="1288 442 1328 442 1328 402 1288 402"></polygon>
                <polygon id="Fill-38-Copy" fill="#F7CA18" transform="translate(60.000000, 1887.000000) scale(-1, 1) translate(-60.000000, -1887.000000) " points="40 1907 80 1907 80 1867 40 1867"></polygon>
                <polygon id="Fill-39" fill="#1292B9" transform="translate(1269.500000, 422.000000) scale(-1, 1) translate(-1269.500000, -422.000000) " points="1250 442 1289 442 1289 402 1250 402"></polygon>
                <polygon id="Fill-40" fill="#E8F0F6" transform="translate(1231.500000, 422.000000) scale(-1, 1) translate(-1231.500000, -422.000000) " points="1212 442 1251 442 1251 402 1212 402"></polygon>
                <polygon id="Fill-41" fill="#B6B5CA" transform="translate(1193.000000, 422.000000) scale(-1, 1) translate(-1193.000000, -422.000000) " points="1173 442 1213 442 1213 402 1173 402"></polygon>
                <polygon id="Fill-46" fill="#B6B5CA" transform="translate(1308.000000, 462.500000) scale(-1, 1) translate(-1308.000000, -462.500000) " points="1288 483 1328 483 1328 442 1288 442"></polygon>
                <polygon id="Fill-46-Copy" fill="#B6B5CA" transform="translate(60.000000, 1927.500000) scale(-1, 1) translate(-60.000000, -1927.500000) " points="40 1948 80 1948 80 1907 40 1907"></polygon>
                <polygon id="Fill-47" fill="#E8F0F6" transform="translate(1154.000000, 462.500000) scale(-1, 1) translate(-1154.000000, -462.500000) " points="1134 483 1174 483 1174 442 1134 442"></polygon>
                <polygon id="Fill-49" fill="#B6B5CA" transform="translate(1308.000000, 20.000000) scale(-1, 1) translate(-1308.000000, -20.000000) " points="1288 40 1328 40 1328 0 1288 0"></polygon>
                <polygon id="Fill-50" fill="#E8F0F6" transform="translate(1269.500000, 20.000000) scale(-1, 1) translate(-1269.500000, -20.000000) " points="1250 40 1289 40 1289 0 1250 0"></polygon>
                <polygon id="Fill-51" fill="#F7CA18" transform="translate(1231.499500, 20.000000) scale(-1, 1) translate(-1231.499500, -20.000000) " points="1211.999 40 1251 40 1251 0 1211.999 0"></polygon>
                <polygon id="Fill-52" fill="#E8F0F6" transform="translate(1077.999500, 20.000000) scale(-1, 1) translate(-1077.999500, -20.000000) " points="1057.999 40 1098 40 1098 0 1057.999 0"></polygon>
                <polygon id="Fill-53" fill="#F7CA18" transform="translate(1308.000000, 60.500000) scale(-1, 1) translate(-1308.000000, -60.500000) " points="1288 81 1328 81 1328 40 1288 40"></polygon>
                <polygon id="Fill-54" fill="#E8F0F6" transform="translate(1231.500000, 60.500000) scale(-1, 1) translate(-1231.500000, -60.500000) " points="1212 81 1251 81 1251 40 1212 40"></polygon>
                <polygon id="Fill-55" fill="#B6B5CA" transform="translate(1193.000000, 60.500000) scale(-1, 1) translate(-1193.000000, -60.500000) " points="1173 81 1213 81 1213 40 1173 40"></polygon>
                <polygon id="Fill-56" fill="#B6B5CA" transform="translate(1116.500000, 60.500000) scale(-1, 1) translate(-1116.500000, -60.500000) " points="1097 81 1136 81 1136 40 1097 40"></polygon>
                <polygon id="Fill-57" fill="#E8F0F6" transform="translate(1039.500000, 60.500000) scale(-1, 1) translate(-1039.500000, -60.500000) " points="1020 81 1059 81 1059 40 1020 40"></polygon>
                <polygon id="Fill-58" fill="#B6B5CA" transform="translate(1001.000000, 60.500000) scale(-1, 1) translate(-1001.000000, -60.500000) " points="981 81 1021 81 1021 40 981 40"></polygon>
                <polygon id="Fill-59" fill="#FF576F" transform="translate(1346.000000, 101.000000) scale(-1, 1) translate(-1346.000000, -101.000000) " points="1326 121 1366 121 1366 81 1326 81"></polygon>
                <polygon id="Fill-60" fill="#B6B5CA" transform="translate(1308.000000, 101.000000) scale(-1, 1) translate(-1308.000000, -101.000000) " points="1288 121 1328 121 1328 81 1288 81"></polygon>
                <polygon id="Fill-60-Copy" fill="#B6B5CA" transform="translate(1426.000000, 20.000000) scale(-1, 1) translate(-1426.000000, -20.000000) " points="1406 40 1446 40 1446 0 1406 0"></polygon>
                <polygon id="Fill-61" fill="#E8F0F6" transform="translate(1154.000000, 101.000000) scale(-1, 1) translate(-1154.000000, -101.000000) " points="1134 121 1174 121 1174 81 1134 81"></polygon>
                <polygon id="Fill-62" fill="#CB295F" transform="translate(1116.500000, 101.000000) scale(-1, 1) translate(-1116.500000, -101.000000) " points="1097 121 1136 121 1136 81 1097 81"></polygon>
                <polygon id="Fill-63" fill="#1292B9" transform="translate(1078.000000, 101.000000) scale(-1, 1) translate(-1078.000000, -101.000000) " points="1058 121 1098 121 1098 81 1058 81"></polygon>
                <polygon id="Fill-64" fill="#CB295F" transform="translate(1039.500000, 101.000000) scale(-1, 1) translate(-1039.500000, -101.000000) " points="1020 121 1059 121 1059 81 1020 81"></polygon>
                <polygon id="Fill-74" fill="#B6B5CA" transform="translate(1386.000000, 742.500000) scale(-1, 1) translate(-1386.000000, -742.500000) " points="1366 763 1406 763 1406 722 1366 722"></polygon>
                <polygon id="Fill-75" fill="#B6B5CA" transform="translate(1002.000000, 702.000000) scale(-1, 1) translate(-1002.000000, -702.000000) " points="982 722 1022 722 1022 682 982 682"></polygon>
                <polygon id="Fill-79" fill="#B6B5CA" transform="translate(1423.000000, 502.499500) scale(-1, 1) translate(-1423.000000, -502.499500) " points="1404 522 1442 522 1442 482.999 1404 482.999"></polygon>
                <polygon id="Fill-80" fill="#F7CA18" transform="translate(1346.000000, 502.500000) scale(-1, 1) translate(-1346.000000, -502.500000) " points="1326 522 1366 522 1366 483 1326 483"></polygon>
                <polygon id="Fill-80-Copy" fill="#F7CA18" transform="translate(98.000000, 1967.500000) scale(-1, 1) translate(-98.000000, -1967.500000) " points="78 1987 118 1987 118 1948 78 1948"></polygon>
                <polygon id="Fill-81" fill="#E8F0F6" transform="translate(1308.000000, 502.500000) scale(-1, 1) translate(-1308.000000, -502.500000) " points="1288 522 1328 522 1328 483 1288 483"></polygon>
                <polygon id="Fill-81-Copy" fill="#E8F0F6" transform="translate(253.000000, 1967.500000) scale(-1, 1) translate(-253.000000, -1967.500000) " points="233 1987 273 1987 273 1948 233 1948"></polygon>
                <polygon id="Fill-82" fill="#F7CA18" transform="translate(1269.500000, 502.500000) scale(-1, 1) translate(-1269.500000, -502.500000) " points="1250 522 1289 522 1289 483 1250 483"></polygon>
                <polygon id="Fill-83" fill="#F7CA18" transform="translate(1193.000000, 502.500000) scale(-1, 1) translate(-1193.000000, -502.500000) " points="1173 522 1213 522 1213 483 1173 483"></polygon>
                <polygon id="Fill-101" fill="#F7CA18" transform="translate(1153.000000, 918.500500) scale(-1, 1) translate(-1153.000000, -918.500500) " points="1134 938.001 1172 938.001 1172 899 1134 899"></polygon>
                <polygon id="Fill-108" fill="#1292B9" transform="translate(214.500000, 181.500000) scale(-1, 1) translate(-214.500000, -181.500000) " points="195 201 234 201 234 162 195 162"></polygon>
                <polygon id="Fill-109" fill="#F7CA18" transform="translate(95.500000, 262.500000) scale(-1, 1) translate(-95.500000, -262.500000) " points="76 282 115 282 115 243 76 243"></polygon>
                <polygon id="Fill-110" fill="#E8F0F6" transform="translate(886.000000, 261.500000) scale(-1, 1) translate(-886.000000, -261.500000) " points="866 282 906 282 906 241 866 241"></polygon>
                <polygon id="Fill-111" fill="#F7CA18" transform="translate(924.500000, 302.000000) scale(-1, 1) translate(-924.500000, -302.000000) " points="905 322 944 322 944 282 905 282"></polygon>
                <polygon id="Fill-112" fill="#1292B9" transform="translate(886.000000, 302.000000) scale(-1, 1) translate(-886.000000, -302.000000) " points="866 322 906 322 906 282 866 282"></polygon>
                <polygon id="Fill-113" fill="#E8F0F6" transform="translate(847.000000, 302.000000) scale(-1, 1) translate(-847.000000, -302.000000) " points="827 322 867 322 867 282 827 282"></polygon>
                <polygon id="Fill-114" fill="#CB295F" transform="translate(771.000000, 342.000000) scale(-1, 1) translate(-771.000000, -342.000000) " points="751 362 791 362 791 322 751 322"></polygon>
                <polygon id="Fill-115" fill="#E8F0F6" transform="translate(694.000000, 342.000000) scale(-1, 1) translate(-694.000000, -342.000000) " points="674 362 714 362 714 322 674 322"></polygon>
                <polygon id="Fill-116" fill="#F7CA18" transform="translate(924.500000, 382.000000) scale(-1, 1) translate(-924.500000, -382.000000) " points="905 402 944 402 944 362 905 362"></polygon>
                <polygon id="Fill-116-Copy" fill="#F7CA18" transform="translate(440.500000, 382.000000) scale(-1, 1) translate(-440.500000, -382.000000) " points="421 402 460 402 460 362 421 362"></polygon>
                <polygon id="Fill-117" fill="#E8F0F6" transform="translate(924.500000, 422.000000) scale(-1, 1) translate(-924.500000, -422.000000) " points="905 442 944 442 944 402 905 402"></polygon>
                <polygon id="Fill-118" fill="#F7CA18" transform="translate(694.000000, 422.000000) scale(-1, 1) translate(-694.000000, -422.000000) " points="674 442 714 442 714 402 674 402"></polygon>
                <polygon id="Fill-120" fill="#F7CA18" transform="translate(847.000000, 502.500000) scale(-1, 1) translate(-847.000000, -502.500000) " points="827 522 867 522 867 483 827 483"></polygon>
                <polygon id="Fill-121" fill="#E8F0F6" transform="translate(175.000000, 141.500000) scale(-1, 1) translate(-175.000000, -141.500000) " points="155 162 195 162 195 121 155 121"></polygon>
                <polygon id="Fill-122" fill="#F7CA18" transform="translate(20.000000, 141.500000) scale(-1, 1) translate(-20.000000, -141.500000) " points="0 162 40 162 40 121 0 121"></polygon>
                <polygon id="Fill-123" fill="#F7CA18" transform="translate(136.000000, 181.500000) scale(-1, 1) translate(-136.000000, -181.500000) " points="116 201 156 201 156 162 116 162"></polygon>
                <polygon id="Fill-124" fill="#1292B9" transform="translate(60.000000, 181.500000) scale(-1, 1) translate(-60.000000, -181.500000) " points="40 201 80 201 80 162 40 162"></polygon>
                <polygon id="Fill-125" fill="#F7CA18" transform="translate(251.500000, 221.000000) scale(-1, 1) translate(-251.500000, -221.000000) " points="232 241 271 241 271 201 232 201"></polygon>
                <polygon id="Fill-126" fill="#FF576F" transform="translate(136.000000, 221.000000) scale(-1, 1) translate(-136.000000, -221.000000) " points="116 241 156 241 156 201 116 201"></polygon>
                <polygon id="Fill-128" fill="#F7CA18" transform="translate(175.000000, 20.000000) scale(-1, 1) translate(-175.000000, -20.000000) " points="155 40 195 40 195 0 155 0"></polygon>
                <polygon id="Fill-129" fill="#E8F0F6" transform="translate(213.500000, 60.500000) scale(-1, 1) translate(-213.500000, -60.500000) " points="194 81 233 81 233 40 194 40"></polygon>
                <polygon id="Fill-130" fill="#B6B5CA" transform="translate(175.000000, 60.500000) scale(-1, 1) translate(-175.000000, -60.500000) " points="155 81 195 81 195 40 155 40"></polygon>
                <polygon id="Fill-131" fill="#B6B5CA" transform="translate(98.500000, 60.500000) scale(-1, 1) translate(-98.500000, -60.500000) " points="79 81 118 81 118 40 79 40"></polygon>
                <polygon id="Fill-132" fill="#1292B9" transform="translate(60.000000, 101.000000) scale(-1, 1) translate(-60.000000, -101.000000) " points="40 121 80 121 80 81 40 81"></polygon>
                <polygon id="Fill-134" fill="#E8F0F6" transform="translate(1269.500000, 382.000000) scale(-1, 1) translate(-1269.500000, -382.000000) " points="1250 402 1289 402 1289 362 1250 362"></polygon>
                <polygon id="Fill-136" fill="#F7CA18" transform="translate(1078.000000, 60.500000) scale(-1, 1) translate(-1078.000000, -60.500000) " points="1058 81 1098 81 1098 40 1058 40"></polygon>
                <polygon id="Fill-138" fill="#1292B9" transform="translate(1231.500000, 502.500000) scale(-1, 1) translate(-1231.500000, -502.500000) " points="1212 522 1251 522 1251 483 1212 483"></polygon>
                <polygon id="Fill-140" fill="#1292B9" transform="translate(1231.500000, 261.500000) scale(-1, 1) translate(-1231.500000, -261.500000) " points="1212 282 1251 282 1251 241 1212 241"></polygon>
                <polygon id="Fill-42" fill="#B6B5CA" transform="translate(137.500000, 921.000000) scale(-1, 1) translate(-137.500000, -921.000000) " points="118 941 157 941 157 901 118 901"></polygon>
                <polygon id="Fill-43" fill="#F7CA18" transform="translate(100.000000, 822.000000) scale(-1, 1) translate(-100.000000, -822.000000) " points="80 842 120 842 120 802 80 802"></polygon>
                <polygon id="Fill-44" fill="#E8F0F6" transform="translate(61.500000, 1151.000000) scale(-1, 1) translate(-61.500000, -1151.000000) " points="42 1171 81 1171 81 1131 42 1131"></polygon>
                <polygon id="Fill-45" fill="#B6B5CA" transform="translate(22.000000, 921.000000) scale(-1, 1) translate(-22.000000, -921.000000) " points="2 941 42 941 42 901 2 901"></polygon>
                <polygon id="Fill-48" fill="#CB295F" transform="translate(60.500000, 722.500000) scale(-1, 1) translate(-60.500000, -722.500000) " points="41 743 80 743 80 702 41 702"></polygon>
                <polygon id="Fill-84" fill="#CB295F" transform="translate(137.500000, 1001.500000) scale(-1, 1) translate(-137.500000, -1001.500000) " points="118 1021 157 1021 157 982 118 982"></polygon>
                <polygon id="Fill-85" fill="#1292B9" transform="translate(99.000000, 1001.500000) scale(-1, 1) translate(-99.000000, -1001.500000) " points="79 1021 119 1021 119 982 79 982"></polygon>
                <polygon id="Fill-86" fill="#B6B5CA" transform="translate(22.000000, 1001.500000) scale(-1, 1) translate(-22.000000, -1001.500000) " points="2 1021 42 1021 42 982 2 982"></polygon>
                <polygon id="Fill-87" fill="#1292B9" transform="translate(115.000000, 1079.500000) scale(-1, 1) translate(-115.000000, -1079.500000) " points="95 1100 135 1100 135 1059 95 1059"></polygon>
                <polygon id="Fill-107" fill="#E8F0F6" transform="translate(60.500000, 1346.500000) scale(-1, 1) translate(-60.500000, -1346.500000) " points="41 1366 80 1366 80 1327 41 1327"></polygon>
                <polygon id="Fill-68" fill="#F7CA18" transform="translate(1308.000000, 842.000000) scale(-1, 1) translate(-1308.000000, -842.000000) " points="1288 862 1328 862 1328 822 1288 822"></polygon>
                <polygon id="Fill-71" fill="#B6B5CA" transform="translate(1345.500000, 1456.500000) scale(-1, 1) translate(-1345.500000, -1456.500000) " points="1326 1477 1365 1477 1365 1436 1326 1436"></polygon>
                <polygon id="Fill-72" fill="#F7CA18" transform="translate(1384.000000, 1456.500000) scale(-1, 1) translate(-1384.000000, -1456.500000) " points="1364 1477 1404 1477 1404 1436 1364 1436"></polygon>
                <polygon id="Fill-73" fill="#E8F0F6" transform="translate(1422.500000, 1535.500000) scale(-1, 1) translate(-1422.500000, -1535.500000) " points="1403 1556 1442 1556 1442 1515 1403 1515"></polygon>
                <polygon id="Fill-77" fill="#E8F0F6" transform="translate(1308.000000, 1416.000000) scale(-1, 1) translate(-1308.000000, -1416.000000) " points="1288 1436 1328 1436 1328 1396 1288 1396"></polygon>
                <polygon id="Fill-78" fill="#1292B9" transform="translate(1384.000000, 1416.000000) scale(-1, 1) translate(-1384.000000, -1416.000000) " points="1364 1436 1404 1436 1404 1396 1364 1396"></polygon>
                <polygon id="Fill-88" fill="#B6B5CA" transform="translate(1383.000000, 1213.500000) scale(-1, 1) translate(-1383.000000, -1213.500000) " points="1363 1234 1403 1234 1403 1193 1363 1193"></polygon>
                <polygon id="Fill-89" fill="#CB295F" transform="translate(1344.500000, 1256.500000) scale(-1, 1) translate(-1344.500000, -1256.500000) " points="1325 1277 1364 1277 1364 1236 1325 1236"></polygon>
                <polygon id="Fill-94" fill="#CB295F" transform="translate(1306.500000, 1297.000000) scale(-1, 1) translate(-1306.500000, -1297.000000) " points="1287 1317 1326 1317 1326 1277 1287 1277"></polygon>
                <polygon id="Fill-98" fill="#B6B5CA" transform="translate(1421.000000, 1337.500000) scale(-1, 1) translate(-1421.000000, -1337.500000) " points="1401 1358 1441 1358 1441 1317 1401 1317"></polygon>
                <polygon id="Fill-99" fill="#1292B9" transform="translate(1344.500000, 1337.500000) scale(-1, 1) translate(-1344.500000, -1337.500000) " points="1325 1358 1364 1358 1364 1317 1325 1317"></polygon>
                <polygon id="Fill-100" fill="#B6B5CA" transform="translate(1306.500000, 1337.500000) scale(-1, 1) translate(-1306.500000, -1337.500000) " points="1287 1358 1326 1358 1326 1317 1287 1317"></polygon>
                <polygon id="Fill-102" fill="#E8F0F6" transform="translate(1421.000000, 1377.500000) scale(-1, 1) translate(-1421.000000, -1377.500000) " points="1401 1397 1441 1397 1441 1358 1401 1358"></polygon>
                <polygon id="Fill-103" fill="#E8F0F6" transform="translate(1344.500000, 1377.500000) scale(-1, 1) translate(-1344.500000, -1377.500000) " points="1325 1397 1364 1397 1364 1358 1325 1358"></polygon>
                <polygon id="Fill-10-Copy" fill="#F7CA18" transform="translate(21.500000, 1686.000000) scale(-1, 1) translate(-21.500000, -1686.000000) " points="2 1706 41 1706 41 1666 2 1666"></polygon>
                <polygon id="Fill-13-Copy" fill="#B6B5CA" transform="translate(21.500000, 1726.500000) scale(-1, 1) translate(-21.500000, -1726.500000) " points="2 1747 41 1747 41 1706 2 1706"></polygon>
                <polygon id="Fill-39-Copy" fill="#1292B9" transform="translate(21.500000, 1887.000000) scale(-1, 1) translate(-21.500000, -1887.000000) " points="2 1907 41 1907 41 1867 2 1867"></polygon>
                <polygon id="Fill-82-Copy" fill="#F7CA18" transform="translate(21.500000, 1967.500000) scale(-1, 1) translate(-21.500000, -1967.500000) " points="2 1987 41 1987 41 1948 2 1948"></polygon>
                <polygon id="Fill-134-Copy" fill="#E8F0F6" transform="translate(21.500000, 1847.000000) scale(-1, 1) translate(-21.500000, -1847.000000) " points="2 1867 41 1867 41 1827 2 1827"></polygon>
            </g>
        </g>
    </g>
</svg>