<?xml version="1.0" encoding="UTF-8"?>
<svg width="1446px" height="1989px" viewBox="0 0 1446 1989" version="1.1" xmlns="http://www.w3.org/2000/svg" xmlns:xlink="http://www.w3.org/1999/xlink">
    <title>bkg</title>
    <g id="Page-1" stroke="none" stroke-width="1" fill="none" fill-rule="evenodd">
        <g id="Home" transform="translate(1.000000, -83.000000)">
            <g id="bkg" transform="translate(0.000000, 84.000000)">
                <polygon id="Fill-1" fill="#E8F0F6" transform="translate(1191.000000, 141.500000) scale(-1, 1) translate(-1191.000000, -141.500000) " points="1171 162 1211 162 1211 121 1171 121"></polygon>
                <polygon id="Fill-2" fill="#E8F0F6" transform="translate(1037.500000, 141.500000) scale(-1, 1) translate(-1037.500000, -141.500000) " points="1018 162 1057 162 1057 121 1018 121"></polygon>
                <polygon id="Fill-3" fill="#F7CA18" transform="translate(1421.000000, 181.500000) scale(-1, 1) translate(-1421.000000, -181.500000) " points="1402 201 1440 201 1440 162 1402 162"></polygon>
                <polygon id="Fill-4" fill="#CB295F" transform="translate(1191.000000, 181.500000) scale(-1, 1) translate(-1191.000000, -181.500000) " points="1171 201 1211 201 1211 162 1171 162"></polygon>
                <polygon id="Fill-5" fill="#F7CA18" transform="translate(1152.000000, 181.500000) scale(-1, 1) translate(-1152.000000, -181.500000) " points="1132 201 1172 201 1172 162 1132 162"></polygon>
                <polygon id="Fill-6" fill="#CB295F" transform="translate(1114.500000, 181.500000) scale(-1, 1) translate(-1114.500000, -181.500000) " points="1095 201 1134 201 1134 162 1095 162"></polygon>
                <polygon id="Fill-7" fill="#1292B9" transform="translate(1076.000000, 181.500000) scale(-1, 1) translate(-1076.000000, -181.500000) " points="1056 201 1096 201 1096 162 1056 162"></polygon>
                <polygon id="Fill-8" fill="#F7CA18" transform="translate(959.500000, 181.500000) scale(-1, 1) translate(-959.500000, -181.500000) " points="940 201 979 201 979 162 940 162"></polygon>
                <polygon id="Fill-9" fill="#B6B5CA" transform="translate(1344.000000, 221.000000) scale(-1, 1) translate(-1344.000000, -221.000000) " points="1324 241 1364 241 1364 201 1324 201"></polygon>
                <polygon id="Fill-9-Copy" fill="#B6B5CA" transform="translate(56.000000, 1627.000000) scale(-1, 1) translate(-56.000000, -1627.000000) " points="36 1647 76 1647 76 1607 36 1607"></polygon>
                <polygon id="Fill-10" fill="#F7CA18" transform="translate(1267.500000, 221.000000) scale(-1, 1) translate(-1267.500000, -221.000000) " points="1248 241 1287 241 1287 201 1248 201"></polygon>
                <polygon id="Fill-11" fill="#B6B5CA" transform="translate(1152.000000, 221.000000) scale(-1, 1) translate(-1152.000000, -221.000000) " points="1132 241 1172 241 1172 201 1132 201"></polygon>
                <polygon id="Fill-12" fill="#1292B9" transform="translate(1344.000000, 261.500000) scale(-1, 1) translate(-1344.000000, -261.500000) " points="1324 282 1364 282 1364 241 1324 241"></polygon>
                <polygon id="Fill-12-Copy" fill="#1292B9" transform="translate(96.000000, 1726.500000) scale(-1, 1) translate(-96.000000, -1726.500000) " points="76 1747 116 1747 116 1706 76 1706"></polygon>
                <polygon id="Fill-13" fill="#B6B5CA" transform="translate(1267.500000, 261.500000) scale(-1, 1) translate(-1267.500000, -261.500000) " points="1248 282 1287 282 1287 241 1248 241"></polygon>
                <polygon id="Fill-14" fill="#E8F0F6" transform="translate(1191.000000, 261.500000) scale(-1, 1) translate(-1191.000000, -261.500000) " points="1171 282 1211 282 1211 241 1171 241"></polygon>
                <polygon id="Fill-15" fill="#F7CA18" transform="translate(1114.500000, 261.500000) scale(-1, 1) translate(-1114.500000, -261.500000) " points="1095 282 1134 282 1134 241 1095 241"></polygon>
                <polygon id="Fill-16" fill="#FF576F" transform="translate(999.000000, 261.500000) scale(-1, 1) translate(-999.000000, -261.500000) " points="979 282 1019 282 1019 241 979 241"></polygon>
                <polygon id="Fill-17" fill="#F7CA18" transform="translate(1229.500000, 302.000000) scale(-1, 1) translate(-1229.500000, -302.000000) " points="1210 322 1249 322 1249 282 1210 282"></polygon>
                <polygon id="Fill-18" fill="#1292B9" transform="translate(1191.000000, 302.000000) scale(-1, 1) translate(-1191.000000, -302.000000) " points="1171 322 1211 322 1211 282 1171 282"></polygon>
                <polygon id="Fill-19" fill="#E8F0F6" transform="translate(1152.000000, 302.000000) scale(-1, 1) translate(-1152.000000, -302.000000) " points="1132 322 1172 322 1172 282 1132 282"></polygon>
                <polygon id="Fill-20" fill="#B6B5CA" transform="translate(1037.500000, 302.000000) scale(-1, 1) translate(-1037.500000, -302.000000) " points="1018 322 1057 322 1057 282 1018 282"></polygon>
                <polygon id="Fill-21" fill="#B6B5CA" transform="translate(1344.000000, 342.000000) scale(-1, 1) translate(-1344.000000, -342.000000) " points="1324 362 1364 362 1364 322 1324 322"></polygon>
                <polygon id="Fill-21-Copy" fill="#B6B5CA" transform="translate(96.000000, 1807.000000) scale(-1, 1) translate(-96.000000, -1807.000000) " points="76 1827 116 1827 116 1787 76 1787"></polygon>
                <polygon id="Fill-22" fill="#F7CA18" transform="translate(1306.000000, 342.000000) scale(-1, 1) translate(-1306.000000, -342.000000) " points="1286 362 1326 362 1326 322 1286 322"></polygon>
                <polygon id="Fill-22-Copy" fill="#F7CA18" transform="translate(327.000000, 1807.000000) scale(-1, 1) translate(-327.000000, -1807.000000) " points="307 1827 347 1827 347 1787 307 1787"></polygon>
                <polygon id="Fill-23" fill="#CB295F" transform="translate(211.500000, 1277.000000) scale(-1, 1) translate(-211.500000, -1277.000000) " points="192 1297 231 1297 231 1257 192 1257"></polygon>
                <polygon id="Fill-24" fill="#E8F0F6" transform="translate(1191.000000, 342.000000) scale(-1, 1) translate(-1191.000000, -342.000000) " points="1171 362 1211 362 1211 322 1171 322"></polygon>
                <polygon id="Fill-25" fill="#B6B5CA" transform="translate(1152.000000, 342.000000) scale(-1, 1) translate(-1152.000000, -342.000000) " points="1132 362 1172 362 1172 322 1132 322"></polygon>
                <polygon id="Fill-26" fill="#E8F0F6" transform="translate(1114.500000, 342.000000) scale(-1, 1) translate(-1114.500000, -342.000000) " points="1095 362 1134 362 1134 322 1095 322"></polygon>
                <polygon id="Fill-27" fill="#CB295F" transform="translate(1076.000000, 342.000000) scale(-1, 1) translate(-1076.000000, -342.000000) " points="1056 362 1096 362 1096 322 1056 322"></polygon>
                <polygon id="Fill-28" fill="#1292B9" transform="translate(1037.500000, 342.000000) scale(-1, 1) translate(-1037.500000, -342.000000) " points="1018 362 1057 362 1057 322 1018 322"></polygon>
                <polygon id="Fill-29" fill="#E8F0F6" transform="translate(999.000000, 342.000000) scale(-1, 1) translate(-999.000000, -342.000000) " points="979 362 1019 362 1019 322 979 322"></polygon>
                <polygon id="Fill-30" fill="#B6B5CA" transform="translate(1421.000000, 382.000000) scale(-1, 1) translate(-1421.000000, -382.000000) " points="1402 402 1440 402 1440 362 1402 362"></polygon>
                <polygon id="Fill-31" fill="#E8F0F6" transform="translate(1344.000000, 382.000000) scale(-1, 1) translate(-1344.000000, -382.000000) " points="1324 402 1364 402 1364 362 1324 362"></polygon>
                <polygon id="Fill-31-Copy" fill="#E8F0F6" transform="translate(96.000000, 1847.000000) scale(-1, 1) translate(-96.000000, -1847.000000) " points="76 1867 116 1867 116 1827 76 1827"></polygon>
                <polygon id="Fill-32" fill="#B6B5CA" transform="translate(1306.000000, 382.000000) scale(-1, 1) translate(-1306.000000, -382.000000) " points="1286 402 1326 402 1326 362 1286 362"></polygon>
                <polygon id="Fill-32-Copy" fill="#B6B5CA" transform="translate(175.000000, 1847.000000) scale(-1, 1) translate(-175.000000, -1847.000000) " points="155 1867 195 1867 195 1827 155 1827"></polygon>
                <polygon id="Fill-33" fill="#F7CA18" transform="translate(1229.500000, 382.000000) scale(-1, 1) translate(-1229.500000, -382.000000) " points="1210 402 1249 402 1249 362 1210 362"></polygon>
                <polygon id="Fill-34" fill="#E8F0F6" transform="translate(1076.000000, 382.000000) scale(-1, 1) translate(-1076.000000, -382.000000) " points="1056 402 1096 402 1096 362 1056 362"></polygon>
                <polygon id="Fill-35" fill="#B6B5CA" transform="translate(1037.500000, 382.000000) scale(-1, 1) translate(-1037.500000, -382.000000) " points="1018 402 1057 402 1057 362 1018 362"></polygon>
                <polygon id="Fill-36" fill="#B6B5CA" transform="translate(961.000000, 382.000000) scale(-1, 1) translate(-961.000000, -382.000000) " points="942 402 980 402 980 362 942 362"></polygon>
                <polygon id="Fill-37" fill="#E8F0F6" transform="translate(1344.000000, 422.000000) scale(-1, 1) translate(-1344.000000, -422.000000) " points="1324 442 1364 442 1364 402 1324 402"></polygon>
                <polygon id="Fill-37-Copy" fill="#E8F0F6" transform="translate(96.000000, 1887.000000) scale(-1, 1) translate(-96.000000, -1887.000000) " points="76 1907 116 1907 116 1867 76 1867"></polygon>
                <polygon id="Fill-38" fill="#F7CA18" transform="translate(1306.000000, 422.000000) scale(-1, 1) translate(-1306.000000, -422.000000) " points="1286 442 1326 442 1326 402 1286 402"></polygon>
                <polygon id="Fill-38-Copy" fill="#F7CA18" transform="translate(58.000000, 1887.000000) scale(-1, 1) translate(-58.000000, -1887.000000) " points="38 1907 78 1907 78 1867 38 1867"></polygon>
                <polygon id="Fill-39" fill="#1292B9" transform="translate(1267.500000, 422.000000) scale(-1, 1) translate(-1267.500000, -422.000000) " points="1248 442 1287 442 1287 402 1248 402"></polygon>
                <polygon id="Fill-40" fill="#E8F0F6" transform="translate(1229.500000, 422.000000) scale(-1, 1) translate(-1229.500000, -422.000000) " points="1210 442 1249 442 1249 402 1210 402"></polygon>
                <polygon id="Fill-41" fill="#B6B5CA" transform="translate(1191.000000, 422.000000) scale(-1, 1) translate(-1191.000000, -422.000000) " points="1171 442 1211 442 1211 402 1171 402"></polygon>
                <polygon id="Fill-46" fill="#B6B5CA" transform="translate(1306.000000, 462.500000) scale(-1, 1) translate(-1306.000000, -462.500000) " points="1286 483 1326 483 1326 442 1286 442"></polygon>
                <polygon id="Fill-46-Copy" fill="#B6B5CA" transform="translate(58.000000, 1927.500000) scale(-1, 1) translate(-58.000000, -1927.500000) " points="38 1948 78 1948 78 1907 38 1907"></polygon>
                <polygon id="Fill-47" fill="#E8F0F6" transform="translate(1152.000000, 462.500000) scale(-1, 1) translate(-1152.000000, -462.500000) " points="1132 483 1172 483 1172 442 1132 442"></polygon>
                <polygon id="Fill-49" fill="#B6B5CA" transform="translate(1306.000000, 20.000000) scale(-1, 1) translate(-1306.000000, -20.000000) " points="1286 40 1326 40 1326 0 1286 0"></polygon>
                <polygon id="Fill-50" fill="#E8F0F6" transform="translate(1267.500000, 20.000000) scale(-1, 1) translate(-1267.500000, -20.000000) " points="1248 40 1287 40 1287 0 1248 0"></polygon>
                <polygon id="Fill-51" fill="#F7CA18" transform="translate(1229.499500, 20.000000) scale(-1, 1) translate(-1229.499500, -20.000000) " points="1209.999 40 1249 40 1249 0 1209.999 0"></polygon>
                <polygon id="Fill-52" fill="#E8F0F6" transform="translate(1075.999500, 20.000000) scale(-1, 1) translate(-1075.999500, -20.000000) " points="1055.999 40 1096 40 1096 0 1055.999 0"></polygon>
                <polygon id="Fill-53" fill="#F7CA18" transform="translate(1306.000000, 60.500000) scale(-1, 1) translate(-1306.000000, -60.500000) " points="1286 81 1326 81 1326 40 1286 40"></polygon>
                <polygon id="Fill-54" fill="#E8F0F6" transform="translate(1229.500000, 60.500000) scale(-1, 1) translate(-1229.500000, -60.500000) " points="1210 81 1249 81 1249 40 1210 40"></polygon>
                <polygon id="Fill-55" fill="#B6B5CA" transform="translate(1191.000000, 60.500000) scale(-1, 1) translate(-1191.000000, -60.500000) " points="1171 81 1211 81 1211 40 1171 40"></polygon>
                <polygon id="Fill-56" fill="#B6B5CA" transform="translate(1114.500000, 60.500000) scale(-1, 1) translate(-1114.500000, -60.500000) " points="1095 81 1134 81 1134 40 1095 40"></polygon>
                <polygon id="Fill-57" fill="#E8F0F6" transform="translate(1037.500000, 60.500000) scale(-1, 1) translate(-1037.500000, -60.500000) " points="1018 81 1057 81 1057 40 1018 40"></polygon>
                <polygon id="Fill-58" fill="#B6B5CA" transform="translate(999.000000, 60.500000) scale(-1, 1) translate(-999.000000, -60.500000) " points="979 81 1019 81 1019 40 979 40"></polygon>
                <polygon id="Fill-59" fill="#FF576F" transform="translate(1344.000000, 101.000000) scale(-1, 1) translate(-1344.000000, -101.000000) " points="1324 121 1364 121 1364 81 1324 81"></polygon>
                <polygon id="Fill-60" fill="#B6B5CA" transform="translate(1306.000000, 101.000000) scale(-1, 1) translate(-1306.000000, -101.000000) " points="1286 121 1326 121 1326 81 1286 81"></polygon>
                <polygon id="Fill-60-Copy" fill="#B6B5CA" transform="translate(1424.000000, 20.000000) scale(-1, 1) translate(-1424.000000, -20.000000) " points="1404 40 1444 40 1444 0 1404 0"></polygon>
                <polygon id="Fill-61" fill="#E8F0F6" transform="translate(1152.000000, 101.000000) scale(-1, 1) translate(-1152.000000, -101.000000) " points="1132 121 1172 121 1172 81 1132 81"></polygon>
                <polygon id="Fill-62" fill="#CB295F" transform="translate(1114.500000, 101.000000) scale(-1, 1) translate(-1114.500000, -101.000000) " points="1095 121 1134 121 1134 81 1095 81"></polygon>
                <polygon id="Fill-63" fill="#1292B9" transform="translate(1076.000000, 101.000000) scale(-1, 1) translate(-1076.000000, -101.000000) " points="1056 121 1096 121 1096 81 1056 81"></polygon>
                <polygon id="Fill-64" fill="#CB295F" transform="translate(1037.500000, 101.000000) scale(-1, 1) translate(-1037.500000, -101.000000) " points="1018 121 1057 121 1057 81 1018 81"></polygon>
                <polygon id="Fill-74" fill="#B6B5CA" transform="translate(1384.000000, 742.500000) scale(-1, 1) translate(-1384.000000, -742.500000) " points="1364 763 1404 763 1404 722 1364 722"></polygon>
                <polygon id="Fill-75" fill="#B6B5CA" transform="translate(1000.000000, 702.000000) scale(-1, 1) translate(-1000.000000, -702.000000) " points="980 722 1020 722 1020 682 980 682"></polygon>
                <polygon id="Fill-79" fill="#B6B5CA" transform="translate(1421.000000, 502.499500) scale(-1, 1) translate(-1421.000000, -502.499500) " points="1402 522 1440 522 1440 482.999 1402 482.999"></polygon>
                <polygon id="Fill-80" fill="#F7CA18" transform="translate(1344.000000, 502.500000) scale(-1, 1) translate(-1344.000000, -502.500000) " points="1324 522 1364 522 1364 483 1324 483"></polygon>
                <polygon id="Fill-80-Copy" fill="#F7CA18" transform="translate(96.000000, 1967.500000) scale(-1, 1) translate(-96.000000, -1967.500000) " points="76 1987 116 1987 116 1948 76 1948"></polygon>
                <polygon id="Fill-81" fill="#E8F0F6" transform="translate(1306.000000, 502.500000) scale(-1, 1) translate(-1306.000000, -502.500000) " points="1286 522 1326 522 1326 483 1286 483"></polygon>
                <polygon id="Fill-81-Copy" fill="#E8F0F6" transform="translate(251.000000, 1967.500000) scale(-1, 1) translate(-251.000000, -1967.500000) " points="231 1987 271 1987 271 1948 231 1948"></polygon>
                <polygon id="Fill-82" fill="#F7CA18" transform="translate(1267.500000, 502.500000) scale(-1, 1) translate(-1267.500000, -502.500000) " points="1248 522 1287 522 1287 483 1248 483"></polygon>
                <polygon id="Fill-83" fill="#F7CA18" transform="translate(1191.000000, 502.500000) scale(-1, 1) translate(-1191.000000, -502.500000) " points="1171 522 1211 522 1211 483 1171 483"></polygon>
                <polygon id="Fill-101" fill="#F7CA18" transform="translate(1151.000000, 918.500500) scale(-1, 1) translate(-1151.000000, -918.500500) " points="1132 938.001 1170 938.001 1170 899 1132 899"></polygon>
                <polygon id="Fill-108" fill="#1292B9" transform="translate(807.500000, 181.500000) scale(-1, 1) translate(-807.500000, -181.500000) " points="788 201 827 201 827 162 788 162"></polygon>
                <polygon id="Fill-109" fill="#F7CA18" transform="translate(652.500000, 181.500000) scale(-1, 1) translate(-652.500000, -181.500000) " points="633 201 672 201 672 162 633 162"></polygon>
                <polygon id="Fill-110" fill="#E8F0F6" transform="translate(884.000000, 261.500000) scale(-1, 1) translate(-884.000000, -261.500000) " points="864 282 904 282 904 241 864 241"></polygon>
                <polygon id="Fill-111" fill="#F7CA18" transform="translate(922.500000, 302.000000) scale(-1, 1) translate(-922.500000, -302.000000) " points="903 322 942 322 942 282 903 282"></polygon>
                <polygon id="Fill-112" fill="#1292B9" transform="translate(884.000000, 302.000000) scale(-1, 1) translate(-884.000000, -302.000000) " points="864 322 904 322 904 282 864 282"></polygon>
                <polygon id="Fill-113" fill="#E8F0F6" transform="translate(845.000000, 302.000000) scale(-1, 1) translate(-845.000000, -302.000000) " points="825 322 865 322 865 282 825 282"></polygon>
                <polygon id="Fill-114" fill="#CB295F" transform="translate(769.000000, 342.000000) scale(-1, 1) translate(-769.000000, -342.000000) " points="749 362 789 362 789 322 749 322"></polygon>
                <polygon id="Fill-115" fill="#E8F0F6" transform="translate(692.000000, 342.000000) scale(-1, 1) translate(-692.000000, -342.000000) " points="672 362 712 362 712 322 672 322"></polygon>
                <polygon id="Fill-116" fill="#F7CA18" transform="translate(922.500000, 382.000000) scale(-1, 1) translate(-922.500000, -382.000000) " points="903 402 942 402 942 362 903 362"></polygon>
                <polygon id="Fill-117" fill="#E8F0F6" transform="translate(922.500000, 422.000000) scale(-1, 1) translate(-922.500000, -422.000000) " points="903 442 942 442 942 402 903 402"></polygon>
                <polygon id="Fill-118" fill="#F7CA18" transform="translate(692.000000, 422.000000) scale(-1, 1) translate(-692.000000, -422.000000) " points="672 442 712 442 712 402 672 402"></polygon>
                <polygon id="Fill-119" fill="#CB295F" transform="translate(921.500000, 61.000000) scale(-1, 1) translate(-921.500000, -61.000000) " points="902 81 941 81 941 41 902 41"></polygon>
                <polygon id="Fill-120" fill="#F7CA18" transform="translate(845.000000, 502.500000) scale(-1, 1) translate(-845.000000, -502.500000) " points="825 522 865 522 865 483 825 483"></polygon>
                <polygon id="Fill-121" fill="#E8F0F6" transform="translate(768.000000, 141.500000) scale(-1, 1) translate(-768.000000, -141.500000) " points="748 162 788 162 788 121 748 121"></polygon>
                <polygon id="Fill-122" fill="#F7CA18" transform="translate(613.000000, 141.500000) scale(-1, 1) translate(-613.000000, -141.500000) " points="593 162 633 162 633 121 593 121"></polygon>
                <polygon id="Fill-123" fill="#F7CA18" transform="translate(729.000000, 181.500000) scale(-1, 1) translate(-729.000000, -181.500000) " points="709 201 749 201 749 162 709 162"></polygon>
                <polygon id="Fill-124" fill="#1292B9" transform="translate(653.000000, 181.500000) scale(-1, 1) translate(-653.000000, -181.500000) " points="633 201 673 201 673 162 633 162"></polygon>
                <polygon id="Fill-125" fill="#F7CA18" transform="translate(844.500000, 221.000000) scale(-1, 1) translate(-844.500000, -221.000000) " points="825 241 864 241 864 201 825 201"></polygon>
                <polygon id="Fill-126" fill="#FF576F" transform="translate(729.000000, 221.000000) scale(-1, 1) translate(-729.000000, -221.000000) " points="709 241 749 241 749 201 709 201"></polygon>
                <polygon id="Fill-127" fill="#B6B5CA" transform="translate(883.000000, 20.000000) scale(-1, 1) translate(-883.000000, -20.000000) " points="863 40 903 40 903 0 863 0"></polygon>
                <polygon id="Fill-128" fill="#F7CA18" transform="translate(768.000000, 20.000000) scale(-1, 1) translate(-768.000000, -20.000000) " points="748 40 788 40 788 0 748 0"></polygon>
                <polygon id="Fill-129" fill="#E8F0F6" transform="translate(806.500000, 60.500000) scale(-1, 1) translate(-806.500000, -60.500000) " points="787 81 826 81 826 40 787 40"></polygon>
                <polygon id="Fill-130" fill="#B6B5CA" transform="translate(768.000000, 60.500000) scale(-1, 1) translate(-768.000000, -60.500000) " points="748 81 788 81 788 40 748 40"></polygon>
                <polygon id="Fill-131" fill="#B6B5CA" transform="translate(691.500000, 60.500000) scale(-1, 1) translate(-691.500000, -60.500000) " points="672 81 711 81 711 40 672 40"></polygon>
                <polygon id="Fill-132" fill="#1292B9" transform="translate(653.000000, 101.000000) scale(-1, 1) translate(-653.000000, -101.000000) " points="633 121 673 121 673 81 633 81"></polygon>
                <polygon id="Fill-134" fill="#E8F0F6" transform="translate(1267.500000, 382.000000) scale(-1, 1) translate(-1267.500000, -382.000000) " points="1248 402 1287 402 1287 362 1248 362"></polygon>
                <polygon id="Fill-136" fill="#F7CA18" transform="translate(1076.000000, 60.500000) scale(-1, 1) translate(-1076.000000, -60.500000) " points="1056 81 1096 81 1096 40 1056 40"></polygon>
                <polygon id="Fill-138" fill="#1292B9" transform="translate(1229.500000, 502.500000) scale(-1, 1) translate(-1229.500000, -502.500000) " points="1210 522 1249 522 1249 483 1210 483"></polygon>
                <polygon id="Fill-140" fill="#1292B9" transform="translate(1229.500000, 261.500000) scale(-1, 1) translate(-1229.500000, -261.500000) " points="1210 282 1249 282 1249 241 1210 241"></polygon>
                <polygon id="Fill-42" fill="#B6B5CA" transform="translate(135.500000, 921.000000) scale(-1, 1) translate(-135.500000, -921.000000) " points="116 941 155 941 155 901 116 901"></polygon>
                <polygon id="Fill-43" fill="#F7CA18" transform="translate(98.000000, 822.000000) scale(-1, 1) translate(-98.000000, -822.000000) " points="78 842 118 842 118 802 78 802"></polygon>
                <polygon id="Fill-44" fill="#E8F0F6" transform="translate(59.500000, 1151.000000) scale(-1, 1) translate(-59.500000, -1151.000000) " points="40 1171 79 1171 79 1131 40 1131"></polygon>
                <polygon id="Fill-45" fill="#B6B5CA" transform="translate(20.000000, 921.000000) scale(-1, 1) translate(-20.000000, -921.000000) " points="0 941 40 941 40 901 0 901"></polygon>
                <polygon id="Fill-48" fill="#CB295F" transform="translate(58.500000, 722.500000) scale(-1, 1) translate(-58.500000, -722.500000) " points="39 743 78 743 78 702 39 702"></polygon>
                <polygon id="Fill-84" fill="#CB295F" transform="translate(135.500000, 1001.500000) scale(-1, 1) translate(-135.500000, -1001.500000) " points="116 1021 155 1021 155 982 116 982"></polygon>
                <polygon id="Fill-85" fill="#1292B9" transform="translate(97.000000, 1001.500000) scale(-1, 1) translate(-97.000000, -1001.500000) " points="77 1021 117 1021 117 982 77 982"></polygon>
                <polygon id="Fill-86" fill="#B6B5CA" transform="translate(20.000000, 1001.500000) scale(-1, 1) translate(-20.000000, -1001.500000) " points="0 1021 40 1021 40 982 0 982"></polygon>
                <polygon id="Fill-87" fill="#1292B9" transform="translate(113.000000, 1079.500000) scale(-1, 1) translate(-113.000000, -1079.500000) " points="93 1100 133 1100 133 1059 93 1059"></polygon>
                <polygon id="Fill-107" fill="#E8F0F6" transform="translate(58.500000, 1346.500000) scale(-1, 1) translate(-58.500000, -1346.500000) " points="39 1366 78 1366 78 1327 39 1327"></polygon>
                <polygon id="Fill-68" fill="#F7CA18" transform="translate(1306.000000, 842.000000) scale(-1, 1) translate(-1306.000000, -842.000000) " points="1286 862 1326 862 1326 822 1286 822"></polygon>
                <polygon id="Fill-71" fill="#B6B5CA" transform="translate(1343.500000, 1456.500000) scale(-1, 1) translate(-1343.500000, -1456.500000) " points="1324 1477 1363 1477 1363 1436 1324 1436"></polygon>
                <polygon id="Fill-72" fill="#F7CA18" transform="translate(1382.000000, 1456.500000) scale(-1, 1) translate(-1382.000000, -1456.500000) " points="1362 1477 1402 1477 1402 1436 1362 1436"></polygon>
                <polygon id="Fill-73" fill="#E8F0F6" transform="translate(1420.500000, 1535.500000) scale(-1, 1) translate(-1420.500000, -1535.500000) " points="1401 1556 1440 1556 1440 1515 1401 1515"></polygon>
                <polygon id="Fill-77" fill="#E8F0F6" transform="translate(1306.000000, 1416.000000) scale(-1, 1) translate(-1306.000000, -1416.000000) " points="1286 1436 1326 1436 1326 1396 1286 1396"></polygon>
                <polygon id="Fill-78" fill="#1292B9" transform="translate(1382.000000, 1416.000000) scale(-1, 1) translate(-1382.000000, -1416.000000) " points="1362 1436 1402 1436 1402 1396 1362 1396"></polygon>
                <polygon id="Fill-88" fill="#B6B5CA" transform="translate(1381.000000, 1213.500000) scale(-1, 1) translate(-1381.000000, -1213.500000) " points="1361 1234 1401 1234 1401 1193 1361 1193"></polygon>
                <polygon id="Fill-89" fill="#CB295F" transform="translate(1342.500000, 1256.500000) scale(-1, 1) translate(-1342.500000, -1256.500000) " points="1323 1277 1362 1277 1362 1236 1323 1236"></polygon>
                <polygon id="Fill-94" fill="#CB295F" transform="translate(1304.500000, 1297.000000) scale(-1, 1) translate(-1304.500000, -1297.000000) " points="1285 1317 1324 1317 1324 1277 1285 1277"></polygon>
                <polygon id="Fill-98" fill="#B6B5CA" transform="translate(1419.000000, 1337.500000) scale(-1, 1) translate(-1419.000000, -1337.500000) " points="1399 1358 1439 1358 1439 1317 1399 1317"></polygon>
                <polygon id="Fill-99" fill="#1292B9" transform="translate(1342.500000, 1337.500000) scale(-1, 1) translate(-1342.500000, -1337.500000) " points="1323 1358 1362 1358 1362 1317 1323 1317"></polygon>
                <polygon id="Fill-100" fill="#B6B5CA" transform="translate(1304.500000, 1337.500000) scale(-1, 1) translate(-1304.500000, -1337.500000) " points="1285 1358 1324 1358 1324 1317 1285 1317"></polygon>
                <polygon id="Fill-102" fill="#E8F0F6" transform="translate(1419.000000, 1377.500000) scale(-1, 1) translate(-1419.000000, -1377.500000) " points="1399 1397 1439 1397 1439 1358 1399 1358"></polygon>
                <polygon id="Fill-103" fill="#E8F0F6" transform="translate(1342.500000, 1377.500000) scale(-1, 1) translate(-1342.500000, -1377.500000) " points="1323 1397 1362 1397 1362 1358 1323 1358"></polygon>
                <polygon id="Fill-10-Copy" fill="#F7CA18" transform="translate(19.500000, 1686.000000) scale(-1, 1) translate(-19.500000, -1686.000000) " points="0 1706 39 1706 39 1666 0 1666"></polygon>
                <polygon id="Fill-13-Copy" fill="#B6B5CA" transform="translate(19.500000, 1726.500000) scale(-1, 1) translate(-19.500000, -1726.500000) " points="0 1747 39 1747 39 1706 0 1706"></polygon>
                <polygon id="Fill-39-Copy" fill="#1292B9" transform="translate(19.500000, 1887.000000) scale(-1, 1) translate(-19.500000, -1887.000000) " points="0 1907 39 1907 39 1867 0 1867"></polygon>
                <polygon id="Fill-82-Copy" fill="#F7CA18" transform="translate(19.500000, 1967.500000) scale(-1, 1) translate(-19.500000, -1967.500000) " points="0 1987 39 1987 39 1948 0 1948"></polygon>
                <polygon id="Fill-134-Copy" fill="#E8F0F6" transform="translate(19.500000, 1847.000000) scale(-1, 1) translate(-19.500000, -1847.000000) " points="0 1867 39 1867 39 1827 0 1827"></polygon>
            </g>
        </g>
    </g>
</svg>