<?xml version="1.0" encoding="UTF-8"?>
<svg width="427px" height="191px" viewBox="0 0 427 191" version="1.1" xmlns="http://www.w3.org/2000/svg" xmlns:xlink="http://www.w3.org/1999/xlink">
    <title>AA86F2C2-3560-4606-8EE4-A4FEC18D1B7A</title>
    <defs>
        <polygon id="path-1" points="0.000180454465 0.340717729 425.838634 0.340717729 425.838634 188.165343 0.000180454465 188.165343"></polygon>
    </defs>
    <g id="Page-1" stroke="none" stroke-width="1" fill="none" fill-rule="evenodd">
        <g id="Home" transform="translate(-823.000000, -275.000000)">
            <g id="header" transform="translate(136.000000, 262.000000)">
                <g id="game-controller" transform="translate(687.000000, 13.000000)">
                    <g transform="translate(0.000000, 0.998119)">
                        <g id="Group-3" transform="translate(0.000000, 0.497702)">
                            <mask id="mask-2" fill="white">
                                <use xlink:href="#path-1"></use>
                            </mask>
                            <g id="Clip-2"></g>
                            <path d="M46.3179047,17.3237398 C51.6020297,15.0776533 55.9879823,12.8095283 60.6960254,11.3788648 C72.5047841,7.79210523 84.6687625,6.86281677 96.9137237,6.46612446 C108.757452,6.08228792 120.551487,7.31460523 132.374969,7.47805715 C134.377452,7.50376869 136.516133,7.91515331 138.71003,6.682836 C137.267064,4.69386484 135.623482,4.82425908 134.08481,4.78201869 C131.279862,4.701211 128.46387,4.79487446 125.666284,4.62040331 C109.832314,3.63050908 94.0093875,3.58092254 78.2103875,5.16952831 C69.1955341,6.07677831 60.4015427,7.972086 52.1210556,11.7645379 C49.9253185,12.770961 47.3559565,13.5569995 46.3179047,17.3237398 M103.366577,9.00973023 C96.3192366,8.664461 89.3418358,9.73332638 82.3294651,10.1079802 C74.6802754,10.5156918 67.2685125,12.2438745 59.9745427,14.5450572 C46.0510297,18.9362206 35.5895297,28.0766725 26.2397022,38.7983841 C10.742547,56.5760764 1.99640905,76.8790091 2.98844784,100.788903 C3.7633056,119.477519 10.0891634,136.428769 20.0205944,152.046692 C24.1378315,158.525999 29.8342323,163.690346 36.7600987,167.291798 C47.6504392,172.963028 58.9456935,177.61498 70.9900384,180.221028 C81.6079823,182.518538 92.3694866,184.737076 103.219336,182.845442 C117.68028,180.323874 131.784163,176.390009 144.700913,169.053038 C147.502181,167.462596 150.52615,166.562692 153.76178,166.028259 C163.522043,164.413942 173.361448,164.386394 183.19165,164.191721 C211.312913,163.626067 239.406569,165.604019 267.525991,165.168759 C272.237715,165.093461 276.553728,166.362509 280.878944,168.237615 C286.792525,170.797749 292.061926,174.683865 298.008638,176.94648 C312.944435,182.639749 328.465517,186.186105 344.546116,184.399153 C375.599323,180.944624 399.546293,166.391894 413.401706,137.74373 C421.81287,120.353548 424.085909,101.690644 421.352741,82.6549225 C419.103629,66.9819033 411.419469,53.5568072 401.60031,41.4044322 C393.09528,30.8773937 383.528271,21.509211 370.377775,16.7250283 C358.024224,12.2291822 345.228948,9.83066292 332.155754,9.06849946 C313.92359,8.00698023 295.715353,7.53131677 277.407728,8.35959561 C254.958939,9.37703792 232.434689,9.51845138 209.969336,9.46151869 C174.43631,9.36785523 138.886719,11.0317591 103.366577,9.00973023 M333.112823,6.65528792 C335.494452,7.82332638 338.023323,7.54784561 340.54115,7.422961 C342.88965,7.590086 345.23631,7.757211 347.58481,7.92617254 C352.046224,9.74618215 356.892306,9.85270138 361.521206,10.9693168 C366.004706,12.0492014 370.221331,14.3209995 375.026922,14.1042879 C366.47956,10.9417687 357.954284,7.74251869 348.840043,6.54876869 C346.848603,6.45877831 344.798267,6.65161484 342.878607,6.23839369 C326.925004,2.791211 310.678758,4.008836 294.56687,3.14566292 C292.209168,3.02077831 289.58459,3.01894177 287.675974,6.00331677 C303.244909,4.701211 318.167823,6.31369177 333.112823,6.65528792 M222.203254,167.717874 C203.612189,167.717874 189.34634,167.787663 175.084172,167.686653 C168.627638,167.64074 162.253926,168.360663 155.871013,169.11548 C152.037215,169.569105 148.505263,170.805096 145.102146,172.667346 C131.20256,180.279798 116.126883,184.619538 100.56531,186.59749 C89.1449004,188.048355 77.8036332,185.328442 66.6519392,182.603019 C55.6695728,179.917999 45.386603,175.486432 35.3833918,170.327596 C27.5078185,166.261499 21.154353,160.384576 16.6064349,152.948432 C6.52592198,136.471009 0.238715086,118.818201 0.00680991379,99.1470379 C-0.276629741,75.0296148 8.54128836,54.6605668 24.036603,36.7065668 C28.9010901,31.0702302 34.1152754,25.8324225 40.1779392,21.4541148 C42.0883961,20.0730379 43.6822841,18.6478841 43.8516116,15.7241148 C44.0430254,12.3522302 47.3522754,11.1033841 50.0504737,9.81780715 C58.4745211,5.80680715 67.4415211,3.79212446 76.664353,2.69020138 C92.0878875,0.844480229 107.555594,1.56073023 123.01778,1.740711 C126.428258,1.77927831 129.842418,1.88579754 133.254737,1.99231677 C136.300793,2.08781677 139.405745,2.194336 141.314362,5.09239369 C142.615607,7.06850908 144.515021,6.41102831 146.21934,6.41653792 C163.093202,6.44959561 179.967064,6.57998984 196.839086,6.40000908 C224.553594,6.10248984 252.264422,5.60111484 279.978931,5.16218215 C282.292461,5.12361484 284.502922,5.41195138 286.356323,2.97853792 C287.721987,1.18423984 290.353926,0.311884075 292.864392,0.34055062 C314.549366,0.605730229 336.276672,0.456970614 357.58434,5.36787446 C363.236569,6.67181677 368.785728,8.49549946 374.285194,10.3669322 C377.264991,11.3788648 380.539271,12.4587495 380.863202,16.4972975 C380.995719,18.1648745 382.464452,18.7029802 383.570603,19.4908552 C398.095965,29.8379129 409.10778,43.1932206 417.11587,59.0039802 C423.760137,72.1187014 426.739935,85.9184514 425.602495,100.809105 C424.536836,114.757615 422.063181,128.120269 415.770452,140.726269 C409.742758,152.801509 401.500922,162.768403 390.424689,170.676538 C373.66678,182.632403 355.237681,189.124567 334.655176,188.050192 C318.567215,187.21273 302.797663,184.434048 288.645926,175.778442 C279.540887,170.211894 269.701482,167.822557 258.822185,168.514932 C245.193155,169.379942 231.530995,167.866634 222.203254,167.717874" id="Fill-1" fill="#1B1A1A" mask="url(#mask-2)"></path>
                        </g>
                        <path d="M209.969336,126.096587 C212.238694,126.305952 213.976142,125.385847 215.627086,124.175568 C221.450482,119.916635 227.053017,115.393241 231.910142,110.043404 C233.242676,108.577847 234.457418,106.930472 235.373995,105.183923 C237.477706,101.17476 236.2464,98.4897408 232.005849,96.7523754 C229.278202,95.6394331 226.854241,96.3538466 224.553594,97.6504427 C220.193409,100.105895 215.967581,102.796423 212.358327,106.311558 C209.783444,108.82027 207.179112,111.327145 204.863741,114.070933 C202.695612,116.636577 202.774754,119.565856 204.580301,122.414327 C205.876025,124.456558 207.057637,126.669587 209.969336,126.096587 M165.333112,125.178318 C167.357681,125.23525 168.975495,124.478597 170.549137,123.567673 C176.812418,119.938673 182.558512,115.652193 187.537112,110.368472 C189.20462,108.599885 190.548198,106.636625 191.385633,104.353808 C192.927987,100.151808 190.37887,96.2601831 185.880646,95.8892023 C183.125392,95.6614716 180.819224,96.87726 178.548025,98.1536543 C171.497004,102.116904 165.666245,107.595298 160.06187,113.30877 C158.044663,115.363856 156.719491,117.788087 158.147732,120.886327 C159.616465,124.069048 162.355155,124.90651 165.333112,125.178318 M93.1885168,49.8600389 C92.8351375,49.89126 91.8375772,50.0326735 90.8363358,50.0638947 C67.4488832,50.8113658 47.1682237,68.2088947 42.397603,91.9865581 C39.6000168,105.936904 43.2589651,118.109481 52.5296504,128.721 C58.0070297,134.992779 64.6236892,139.874298 72.0630599,143.512481 C83.7319392,149.225952 95.9750599,150.50051 108.234745,145.96977 C138.351129,134.84402 153.493064,93.8139139 131.583547,67.005962 C121.815922,55.0537697 109.524948,48.741587 93.1885168,49.8600389 M413.346491,93.8432985 C413.040965,89.8506639 413.20109,85.7551831 412.348931,81.8819235 C407.427388,59.4761543 395.191629,41.7168273 375.972948,29.4414043 C364.988741,22.4258273 352.719853,17.5075773 339.087142,18.1742408 C332.07109,18.5176735 325.027431,18.6480677 318.114448,20.0860773 C295.884681,24.7159908 277.067232,35.351385 265.685474,55.1804908 C249.442909,83.4723658 250.416543,112.548443 266.083025,141.112125 C271.75734,151.457347 280.551331,158.796154 290.434909,164.739193 C300.423396,170.742837 311.083672,175.451722 322.64028,177.659241 C339.834392,180.942972 356.294138,177.987981 371.842827,170.542654 C385.377991,164.057837 396.266491,154.524366 402.423021,140.362818 C406.032275,132.059827 408.410224,123.382183 410.71087,114.665972 C412.514577,107.835885 413.455081,100.921318 413.346491,93.8432985 M103.366577,9.50761581 C138.886719,11.5296447 174.43631,9.86574081 209.969336,9.95940427 C232.434689,10.016337 254.958939,9.8749235 277.407728,8.85748119 C295.715353,8.02920234 313.92359,8.50486581 332.155754,9.56638504 C345.228948,10.3285485 358.024224,12.7270677 370.377775,17.2229139 C383.528271,22.0070966 393.09528,31.3752793 401.60031,41.9023177 C411.419469,54.0546927 419.103629,67.4797889 421.352741,83.1528081 C424.085909,102.186693 421.81287,120.851433 413.401706,138.241616 C399.546293,166.889779 375.599323,181.44251 344.546116,184.897039 C328.465517,186.683991 312.944435,183.137635 298.006797,177.444366 C292.061926,175.18175 286.792525,171.295635 280.878944,168.7355 C276.553728,166.860395 272.237715,165.591347 267.525991,165.666645 C239.406569,166.101904 211.312913,164.123952 183.19165,164.689606 C173.361448,164.884279 163.522043,164.911827 153.76178,166.526145 C150.52615,167.060577 147.502181,167.960481 144.700913,169.550923 C131.784163,176.887895 117.68028,180.82176 103.219336,183.343327 C92.3694866,185.234962 81.6079823,183.016423 70.9900384,180.718914 C58.9456935,178.112866 47.6504392,173.460914 36.7600987,167.789683 C29.8342323,164.188231 24.1378315,159.023885 20.0205944,152.544577 C10.0891634,136.924818 3.7633056,119.975404 2.98844784,101.286789 C1.99640905,77.3768947 10.742547,57.073962 26.2397022,39.2962697 C35.5895297,28.5745581 46.0510297,19.4341062 59.9745427,15.0429427 C67.2685125,12.74176 74.6802754,11.0135773 82.3294651,10.6058658 C89.3418358,10.231212 96.3192366,9.16234658 103.366577,9.50761581" id="Fill-4" fill="#D1D0CF"></path>
                        <path d="M46.3179047,17.8214418 C47.3559565,14.0547014 49.9253185,13.2686629 52.1210556,12.2622398 C60.4015427,8.46978792 69.1955341,6.57448023 78.2103875,5.66723023 C94.0093875,4.07862446 109.832314,4.128211 125.666284,5.11810523 C128.46387,5.29257638 131.279862,5.19891292 134.08481,5.27972061 C135.623482,5.321961 137.267064,5.19156677 138.71003,7.18053792 C136.516133,8.41285523 134.377452,8.00147061 132.374969,7.97575908 C120.551487,7.81230715 108.757452,6.57998984 96.9137237,6.96382638 C84.6687625,7.36051869 72.5047841,8.28980715 60.6960254,11.8765668 C55.9879823,13.3072302 51.6020297,15.5753552 46.3179047,17.8214418" id="Fill-6" fill="#989C9E"></path>
                        <path d="M347.58481,8.42442542 C345.23631,8.25546388 342.88965,8.08833888 340.54115,7.92121388 C338.205534,6.31791581 335.625129,7.07089658 333.112823,7.15354081 C318.167823,6.81194465 303.244909,5.19946388 287.675974,6.50156965 C289.58459,3.51719465 292.209168,3.51903119 294.56687,3.64391581 C310.678758,4.50525234 326.925004,3.28946388 342.878607,6.73664658 C344.798267,7.14986773 346.848603,6.95703119 348.840043,7.04702158 C348.420405,7.50615619 348.002607,7.96529081 347.58481,8.42442542" id="Fill-8" fill="#989C9E"></path>
                        <path d="M347.58481,8.42442542 C348.002607,7.96529081 348.420405,7.50615619 348.840043,7.04702158 C357.954284,8.24077158 366.47956,11.4400216 375.026922,14.6025408 C370.221331,14.8174158 366.004706,12.5474543 361.521206,11.4657331 C356.892306,10.3491177 352.046224,10.244435 347.58481,8.42442542" id="Fill-10" fill="#6B7385"></path>
                        <path d="M333.113191,7.15372446 C335.625497,7.07108023 338.205902,6.31809946 340.541519,7.919561 C338.023691,8.04444561 335.49482,8.32176292 333.113191,7.15372446" id="Fill-12" fill="#6B6C6C"></path>
                        <path d="M409.908037,93.497111 C409.436864,87.2473706 409.711101,81.3410629 407.623955,75.8185918 C404.292619,67.0087168 400.580295,58.4100437 394.791869,50.7957552 C383.290476,35.6810437 368.496399,25.6113033 349.826192,21.9125148 C339.922369,19.9529283 329.75167,20.6489764 319.892019,22.6544764 C292.195916,28.2816302 271.89133,43.1631014 262.090575,70.3989668 C255.762877,87.9801495 255.917481,105.87538 261.558666,123.493294 C266.3753,138.530871 275.034933,150.966073 288.608748,159.908178 C298.126062,166.178121 308.453205,170.431544 319.14845,173.72813 C326.576778,176.018294 334.537015,177.358967 342.335287,175.97789 C352.399235,174.194611 362.420851,171.774053 371.538774,166.945794 C383.281274,160.730948 393.174054,152.508765 398.807877,140.025813 C403.112847,130.483159 405.7908,120.442803 408.258933,110.327149 C409.646683,104.63939 409.830735,98.8377648 409.908037,93.497111 M413.347963,93.8423802 C413.454713,100.922236 412.51605,107.834967 410.712343,114.66689 C408.409856,123.383101 406.033748,132.060746 402.422653,140.361899 C396.266123,154.523448 385.377623,164.056919 371.842459,170.543573 C356.29561,177.987063 339.834024,180.94389 322.639912,177.660159 C311.085144,175.45264 300.423028,170.741919 290.434541,164.740111 C280.550963,158.795236 271.756972,151.456428 266.082657,141.111207 C250.416175,112.549361 249.442541,83.4732841 265.685106,55.1795725 C277.066864,35.3504668 295.884312,24.7169091 318.11408,20.0869956 C325.027062,18.6471495 332.070722,18.5167552 339.086774,18.1751591 C352.719485,17.5084956 364.988373,22.4267456 375.97258,29.4423225 C395.191261,41.7159091 407.427019,59.4770725 412.350403,81.8810052 C413.202562,85.7561014 413.040597,89.8515822 413.347963,93.8423802" id="Fill-14" fill="#1B1A1A"></path>
                        <path d="M94.7275573,145.606135 C104.938747,145.77326 113.607583,142.111202 120.96045,135.26275 C130.648932,126.24351 137.004238,115.631991 138.526346,102.0765 C140.2822,86.4512312 135.213415,73.7717697 123.997303,63.2153466 C119.419937,58.9068273 114.266488,55.2888466 108.032656,53.994087 C88.1974022,49.8710581 66.4111996,55.2300773 53.6508935,73.646885 C46.7397513,83.6211254 42.916997,94.68076 45.1808332,107.09576 C46.813372,116.043375 51.0023892,123.637462 57.5822384,129.936789 C67.9811608,139.892664 80.0807211,145.800808 94.7275573,145.606135 M93.1888849,49.8600389 C109.525316,48.741587 121.81445,55.0537697 131.583915,67.005962 C153.493432,93.8139139 138.351497,134.84402 108.235113,145.96977 C95.975428,150.50051 83.7323073,149.225952 72.063428,143.512481 C64.6240573,139.874298 58.0073978,134.992779 52.5300185,128.721 C43.2593332,118.109481 39.5985444,105.936904 42.3979711,91.9865581 C47.1685918,68.2088947 67.4492513,50.8113658 90.8367039,50.0638947 C91.8379453,50.0326735 92.8355056,49.89126 93.1888849,49.8600389" id="Fill-16" fill="#1B1A1A"></path>
                        <path d="M188.609213,102.206344 C188.531911,100.555296 187.582204,99.642536 186.049053,99.3339975 C184.191972,98.9630168 182.476609,99.4901033 180.860635,100.382661 C173.763601,104.305507 167.886829,109.719623 162.289816,115.477171 C160.903907,116.900488 160.338868,118.523988 161.595941,120.327469 C162.915592,122.222776 164.785558,122.946373 166.830372,121.829757 C174.588153,117.576334 182.040407,112.891324 187.278519,105.484565 C187.974234,104.50018 188.60001,103.469882 188.609213,102.206344 M165.332191,125.177767 C162.356075,124.905959 159.615545,124.068498 158.148653,120.885776 C156.720411,117.787536 158.043743,115.365142 160.062791,113.308219 C165.667166,107.596584 171.496084,102.11819 178.547105,98.1531033 C180.818303,96.8767091 183.126312,95.6627572 185.879726,95.8886514 C190.37795,96.2596322 192.927066,100.151257 191.384713,104.353257 C190.549118,106.637911 189.2037,108.599334 187.536191,110.367921 C182.559433,115.651642 176.811497,119.939959 170.548217,123.567123 C168.974575,124.478046 167.35676,125.236536 165.332191,125.177767" id="Fill-18" fill="#1B1A1A"></path>
                        <path d="M228.669359,99.2919408 C228.080394,99.4498831 227.029458,99.5398735 226.175458,99.991662 C219.019527,103.789623 212.94582,108.964989 207.650652,115.029239 C205.830381,117.11371 206.00523,120.066864 207.702187,121.534258 C209.651294,123.2202 211.852553,123.058585 213.772212,121.626085 C217.134837,119.115537 220.506665,116.577441 223.561924,113.719787 C226.604299,110.869479 230.174902,108.474633 232.26573,104.69871 C234.062075,101.45171 232.746105,99.2350081 228.669359,99.2919408 M209.969704,126.09622 C207.058006,126.671056 205.876394,124.458027 204.580669,122.41396 C202.775122,119.567325 202.69598,116.63621 204.862269,114.070566 C207.17948,111.326777 209.783812,108.819902 212.358695,106.311191 C215.96795,102.797893 220.193777,100.105527 224.553962,97.6500754 C226.854609,96.3534793 229.27857,95.6390658 232.004376,96.7538447 C236.246769,98.4893735 237.478075,101.174393 235.374363,105.183556 C234.457786,106.931941 233.243044,108.577479 231.91051,110.043037 C227.053385,115.392873 221.45085,119.916268 215.627454,124.1752 C213.97651,125.385479 212.239062,126.305585 209.969704,126.09622" id="Fill-20" fill="#1B1A1A"></path>
                        <path d="M312.799218,127.985099 C311.547666,143.861974 329.056507,157.476234 345.43527,148.884907 C348.998511,147.017148 352.559912,145.167753 355.72008,142.68108 C365.331261,135.116378 374.776796,127.333128 384.518653,119.941061 C394.323089,112.499407 398.046455,102.978792 395.817589,90.956811 C395.050093,86.8154168 393.226141,83.4655706 389.791735,80.9495129 C382.256658,75.4196956 371.931356,74.6942629 363.864369,79.6969937 C348.13899,89.4416668 334.430817,101.90258 319.655145,112.929157 C319.17661,113.287282 318.810347,113.786821 318.370464,114.198205 C314.312123,117.99433 312.372218,122.629753 312.799218,127.985099 M292.625309,121.357032 C300.171429,121.529667 304.813214,118.734455 308.799774,114.971388 C319.920179,104.48659 332.886623,96.3507245 344.643847,86.6721668 C348.267826,83.6896283 351.55499,80.6373014 354.08202,76.7493495 C358.252632,70.3251379 357.417037,59.7154552 351.87524,54.4978495 C343.659171,46.7550033 333.405649,43.8312341 322.546597,51.706311 C311.847671,59.4638495 301.327274,67.5005418 290.065149,74.4757148 C286.124602,76.9164745 282.658908,79.9945129 279.438003,83.292936 C272.556309,90.3342245 270.92377,98.9604456 274.728119,107.619724 C278.469891,116.133917 285.460175,120.097167 292.625309,121.357032 M409.908589,93.4967437 C409.829447,98.8373975 409.647235,104.639023 408.259485,110.326782 C405.789511,120.444273 403.113399,130.482792 398.808429,140.027282 C393.172766,152.510234 383.279985,160.73058 371.539326,166.945426 C362.419563,171.773686 352.399787,174.194244 342.335839,175.977523 C334.537567,177.358599 326.57733,176.017926 319.149003,173.727763 C308.453757,170.431176 298.124774,166.177753 288.607459,159.907811 C275.033645,150.965705 266.374011,138.530503 261.559218,123.492926 C255.918033,105.875013 255.761589,87.9797822 262.089287,70.400436 C271.890041,43.1627341 292.196468,28.2812629 319.892572,22.6541091 C329.752222,20.6504456 339.922921,19.952561 349.826744,21.9139841 C368.496951,25.610936 383.289188,35.6806764 394.79058,50.7953879 C400.580847,58.4096764 404.293171,67.0083495 407.624507,75.8182245 C409.709813,81.3406956 409.437416,87.2470033 409.908589,93.4967437" id="Fill-22" fill="#989C9E"></path>
                        <path d="M114.244402,112.767358 C116.145656,112.670022 117.347514,112.569012 118.547531,112.55432 C119.951846,112.532281 121.363523,112.693897 122.756794,112.585541 C126.303471,112.311897 127.575269,111.292618 127.788769,107.907877 C128.11454,102.710473 127.963618,97.4818485 127.162993,92.3358677 C126.555622,88.431387 124.359885,85.8216658 120.056756,85.4194639 C116.26529,85.0613389 112.503273,84.3708004 108.709967,84.0879735 C106.192139,83.9006466 105.170652,82.84831 105.242432,80.3598004 C105.352863,76.5600023 105.426484,72.749185 105.277402,68.9512235 C105.117277,64.7896273 103.630139,62.7620889 99.7852987,62.3066273 C94.8269453,61.7226081 89.7857685,61.4177427 84.8053289,62.0440023 C80.7672341,62.550887 79.5819409,63.7317812 79.0169022,67.7299254 C78.4316177,71.8786658 77.5297642,76.0292427 77.8040013,80.2551177 C77.9733289,82.8501466 76.8414108,83.8253485 74.3291047,83.871262 C69.7241306,83.9502331 65.1081134,84.0438966 60.5215444,84.4222235 C55.7730099,84.8134062 54.5656306,85.9575697 54.0079539,90.6572716 C53.3748159,96.0291466 53.2938332,101.441425 54.3650142,106.796772 C55.3772987,111.858272 56.4650444,112.824291 61.548553,112.859185 C65.9584323,112.88857 70.3719927,112.8298 74.781872,112.68655 C77.1322125,112.609416 78.0248634,113.606656 77.8905056,115.8858 C77.6530789,119.898637 78.0506306,123.893108 78.7040142,127.845339 C79.5524927,132.958262 81.0488332,134.343012 86.2022815,134.530339 C90.6084797,134.690118 95.0220401,134.620329 99.4319194,134.568906 C103.247312,134.526666 103.786583,133.992233 104.152846,130.028983 C104.390273,127.4413 104.473096,124.837089 104.70132,122.245733 C104.964514,119.266868 104.320333,115.544204 105.87373,113.511156 C107.844924,110.92531 111.866454,113.353214 114.244402,112.767358 M94.7275573,145.606502 C80.0807211,145.801175 67.9811608,139.893031 57.5822384,129.937156 C51.0023892,123.637829 46.813372,116.043743 45.1808332,107.096127 C42.916997,94.6792908 46.7397513,83.6196562 53.6508935,73.6472523 C66.4111996,55.2286081 88.1974022,49.8695889 108.032656,53.9944543 C114.266488,55.2892139 119.419937,58.9071947 123.997303,63.2157139 C135.213415,73.772137 140.2822,86.449762 138.526346,102.076868 C137.004238,115.632358 130.648932,126.243877 120.96045,135.263118 C113.607583,142.11157 104.938747,145.773627 94.7275573,145.606502" id="Fill-24" fill="#D1D0CF"></path>
                        <path d="M188.609213,102.201018 C188.60001,103.470066 187.974234,104.500364 187.278519,105.484748 C182.040407,112.891508 174.588153,117.576518 166.830372,121.829941 C164.785558,122.946556 162.915592,122.22296 161.595941,120.327652 C160.338868,118.524172 160.903907,116.900672 162.289816,115.477354 C167.886829,109.719806 173.763601,104.305691 180.860635,100.382845 C182.476609,99.490287 184.191972,98.9632004 186.049053,99.3323447 C187.582204,99.6427197 188.531911,100.555479 188.609213,102.201018" id="Fill-26" fill="#6B7385"></path>
                        <path d="M228.669359,99.2919408 C232.746105,99.2350081 234.062075,101.45171 232.26573,104.69871 C230.174902,108.474633 226.604299,110.869479 223.561924,113.719787 C220.506665,116.577441 217.134837,119.115537 213.772212,121.626085 C211.852553,123.058585 209.651294,123.2202 207.702187,121.534258 C206.00523,120.066864 205.830381,117.11371 207.650652,115.029239 C212.94582,108.964989 219.019527,103.789623 226.175458,99.991662 C227.029458,99.5398735 228.080394,99.4498831 228.669359,99.2919408" id="Fill-28" fill="#6B7385"></path>
                        <path d="M308.033583,99.7295879 C308.04461,90.5487322 302.469683,83.8361841 295.068963,84.1135014 C288.928998,84.3430687 281.539321,91.2300879 281.614782,96.6515495 C281.708649,103.476126 288.976851,111.483434 294.98614,111.384261 C303.202209,111.250194 308.026205,106.939838 308.033583,99.7295879 M347.908373,79.1015879 C348.696114,78.221886 349.476494,77.338511 350.271597,76.4679918 C355.588851,70.6333091 354.250795,64.6535398 350.693075,57.5718475 C347.941502,52.0952898 339.129106,48.7931937 333.103252,49.6967706 C327.605627,50.5232129 323.856494,54.0732418 319.827601,57.2853475 C309.121313,64.6755783 298.310114,71.918886 287.769472,79.5386841 C284.243041,82.0914725 281.296373,85.4156072 278.811675,89.1750014 C271.2177,100.666223 279.43745,115.553203 292.622916,118.162924 C297.367769,119.099559 303.717554,115.997646 306.5133,111.667088 C291.897752,116.113348 286.705653,114.781857 281.244838,105.180434 C277.241713,98.1446552 278.136205,91.6304533 283.865735,86.1190014 C289.558455,80.6461168 297.929127,79.7572322 304.348851,83.8233283 C307.683869,85.9371841 308.745847,89.3770206 310.07286,92.7268668 C312.52995,98.921511 311.550795,104.730482 306.999196,111.117963 C310.472252,109.902174 311.81583,108.183174 313.444688,106.886578 C316.895657,104.140953 320.105519,101.000473 323.849131,98.7396937 C331.811209,93.9297995 338.304554,87.2907129 345.786256,81.9041456 C346.754369,81.2080975 347.676468,80.3926745 347.908373,79.1015879 M292.624756,121.356665 C285.459623,120.096799 278.471179,116.133549 274.727567,107.619357 C270.923218,98.9600783 272.557597,90.3338572 279.43745,83.2925687 C282.658356,79.9941456 286.12589,76.9161072 290.066438,74.4753475 C301.326722,67.502011 311.848959,59.4634822 322.547886,51.7059437 C333.406938,43.8308668 343.658619,46.754636 351.876528,54.4974822 C357.416485,59.7150879 358.25392,70.3247706 354.081468,76.7489822 C351.554438,80.6369341 348.267274,83.6910975 344.645136,86.673636 C332.886071,96.3503572 319.919627,104.486223 308.801063,114.971021 C304.812662,118.734088 300.170877,121.531136 292.624756,121.356665" id="Fill-30" fill="#1B1A1A"></path>
                        <path d="M349.373241,143.055918 C350.247486,142.591273 351.213758,142.246004 351.983094,141.645456 C363.0354,133.030254 374.159486,124.499533 385.057189,115.695168 C392.859141,109.390331 394.773279,100.990004 392.883068,91.3757254 C391.960969,86.6943889 389.621672,83.2765908 385.366396,81.2196677 C378.020891,77.6659658 370.695633,77.0452158 363.856271,82.281187 C349.601465,93.192062 335.451568,104.235168 321.257499,115.225014 C315.367844,122.157947 313.989297,132.455418 318.478318,138.945745 C325.083934,148.486562 334.899413,152.082504 344.845568,145.880514 C346.354792,144.940206 348.158499,144.471889 349.373241,143.055918 M312.798482,127.985283 C312.371482,122.629937 314.311387,117.994514 318.369728,114.198389 C318.811452,113.785168 319.175874,113.287466 319.654409,112.929341 C334.430081,101.902764 348.138253,89.4418504 363.865473,79.6953408 C371.93062,74.6944466 382.257762,75.4198793 389.790999,80.9496966 C393.225404,83.4657543 395.049357,86.8137639 395.816853,90.9569947 C398.045719,102.978975 394.322353,112.499591 384.517917,119.941245 C374.7779,127.331475 365.330525,135.116562 355.719344,142.681264 C352.559176,145.167937 348.997775,147.017331 345.434534,148.885091 C329.055771,157.476418 311.548771,143.860322 312.798482,127.985283" id="Fill-32" fill="#1B1A1A"></path>
                        <path d="M68.8417866,109.395473 C68.8417866,109.320175 68.8417866,109.243041 68.8417866,109.165906 C70.6473341,109.165906 72.454722,109.147541 74.2621099,109.167743 C81.0499375,109.237531 81.2358297,109.446897 81.3112909,116.412887 C81.3536228,120.209012 81.2100625,124.001464 82.1505668,127.760858 C82.6640711,129.806762 83.5843297,131.004185 85.7561401,130.991432 C89.9690841,130.963781 94.1838685,130.919704 98.3968125,130.877464 C100.281502,130.862772 100.633041,129.604743 100.758196,128.080416 C101.115256,123.696598 101.586429,119.318291 101.877231,114.934473 C102.263739,109.112647 102.486442,108.91981 108.190205,109.092445 C112.601925,109.226512 117.021006,109.143868 121.438248,109.167743 C123.208825,109.178762 124.695963,108.800435 124.672037,106.613118 C124.618662,102.019935 125.139528,97.4047139 124.038899,92.8556081 C123.405761,90.2385408 122.047459,88.697685 119.109994,88.53056 C115.517304,88.3211947 111.943019,87.76656 108.365054,87.3257908 C103.340442,86.7068773 102.199321,85.5370023 102.022631,80.4038773 C101.908519,77.0062812 102.175394,73.5921562 102.055761,70.1927235 C101.895636,65.7115697 101.222006,65.0926562 96.6888125,64.842887 C93.8857047,64.6867812 91.0733944,64.631685 88.2647651,64.6114831 C83.2806444,64.5729158 82.4616142,65.1863197 81.6646703,70.3157716 C81.2027004,73.274435 81.1879763,76.2992139 80.9358254,79.290935 C80.4223211,85.4194639 78.9996013,86.8942043 72.7436832,87.2982427 C68.9411746,87.5443389 65.1202608,87.5020985 61.3067091,87.5571947 C58.9802953,87.5902523 57.4618685,88.4846466 57.296222,91.0062139 C56.9778125,95.8105985 56.9207565,100.61682 57.3827263,105.412022 C57.6569634,108.295387 59.2398082,109.628714 62.2214461,109.426695 C64.4208642,109.277935 66.6331659,109.395473 68.8417866,109.395473 M114.243666,112.767358 C111.865718,113.353214 107.846028,110.92531 105.872994,113.511156 C104.321437,115.544204 104.963778,119.266868 104.700584,122.245733 C104.4742,124.837089 104.389537,127.4413 104.15211,130.028983 C103.785847,133.992233 103.248416,134.526666 99.4330237,134.568906 C95.0213039,134.620329 90.6077435,134.688281 86.2033858,134.530339 C81.048097,134.343012 79.5517565,132.958262 78.703278,127.845339 C78.0517349,123.893108 77.6523427,119.898637 77.8897694,115.8858 C78.0241272,113.606656 77.1333168,112.609416 74.7811358,112.68655 C70.373097,112.8298 65.9595366,112.88857 61.5478168,112.859185 C56.4661487,112.824291 55.3765625,111.858272 54.364278,106.796772 C53.293097,101.439589 53.3740797,96.0291466 54.0090582,90.6572716 C54.5648944,85.9575697 55.7722737,84.8134062 60.5208082,84.4222235 C65.1092177,84.0438966 69.7233944,83.9502331 74.3302091,83.871262 C76.8425151,83.8253485 77.9725927,82.8501466 77.8051056,80.2551177 C77.5308685,76.0292427 78.4308815,71.8786658 79.0161659,67.7299254 C79.5812047,63.7317812 80.7664978,62.550887 84.8064332,62.0440023 C89.7868728,61.4159062 94.8280496,61.7226081 99.7845625,62.3066273 C103.629403,62.7620889 105.116541,64.7896273 105.278506,68.9512235 C105.425748,72.749185 105.353968,76.5600023 105.243537,80.3598004 C105.171756,82.84831 106.193244,83.9006466 108.709231,84.0879735 C112.504377,84.3708004 116.266394,85.0613389 120.05786,85.4194639 C124.360989,85.8216658 126.556726,88.431387 127.162256,92.3358677 C127.962881,97.4818485 128.115644,102.710473 127.789873,107.907877 C127.576373,111.292618 126.304575,112.311897 122.757899,112.585541 C121.364627,112.693897 119.95111,112.532281 118.548636,112.55432 C117.346778,112.569012 116.146761,112.670022 114.243666,112.767358" id="Fill-34" fill="#1B1A1A"></path>
                        <path d="M347.908373,79.1015879 C347.676468,80.3926745 346.754369,81.2080975 345.786256,81.9041456 C338.304554,87.2907129 331.811209,93.9297995 323.849131,98.7396937 C320.105519,101.000473 316.895657,104.140953 313.444687,106.886578 C311.81583,108.181338 310.472252,109.902174 306.999196,111.117963 C311.550795,104.730482 312.52995,98.921511 310.07286,92.7268668 C308.745847,89.3770206 307.683869,85.9371841 304.348851,83.8233283 C297.929127,79.7572322 289.558455,80.6461168 283.865735,86.1190014 C278.136205,91.6304533 277.239873,98.1446552 281.244838,105.180434 C286.705653,114.781857 291.897752,116.113348 306.5133,111.667088 C303.717554,115.997646 297.367769,119.099559 292.622916,118.162924 C279.43745,115.553203 271.2177,100.666223 278.811675,89.1750014 C281.296373,85.4156072 284.243041,82.089636 287.769472,79.5386841 C298.310114,71.918886 309.121312,64.6755783 319.827601,57.2853475 C320.348468,57.8252898 320.871175,58.3652322 321.393881,58.907011 C320.937433,60.0089341 320.377916,61.0833091 320.039261,62.2201264 C317.344744,71.3036456 321.614744,80.1263764 331.877468,81.874761 C337.095334,82.7618091 341.273308,81.2356456 345.598524,79.105261 C346.36786,79.1034245 347.137196,79.1034245 347.908373,79.1015879" id="Fill-36" fill="#C6C6C6"></path>
                        <path d="M308.033583,99.7295879 C308.026205,106.939838 303.202209,111.250194 294.98614,111.384261 C288.976851,111.483434 281.708649,103.476126 281.614782,96.6515495 C281.539321,91.2300879 288.928998,84.3430687 295.068963,84.1135014 C302.469683,83.8361841 308.04461,90.5487322 308.033583,99.7295879" id="Fill-38" fill="#4D4E4E"></path>
                        <path d="M321.393513,58.9068273 C320.870806,58.366885 320.3481,57.8251062 319.827233,57.2851639 C323.856125,54.0730581 327.605259,50.5230293 333.102884,49.696587 C339.128737,48.79301 347.941134,52.0951062 350.692707,57.5716639 C354.250427,64.6533562 355.588483,70.6331254 350.271229,76.4678081 C349.476125,77.3383273 348.695746,78.2217023 347.908005,79.1014043 C347.136828,79.1050773 346.367492,79.1050773 345.598156,79.1069139 C345.636806,78.967337 345.730673,78.8149043 345.703065,78.6900197 C345.646009,78.4255581 345.528216,78.1776254 345.43435,77.92051 L345.404901,77.9498947 C348.029479,78.203337 348.951578,76.1188658 349.503733,74.3668081 C351.506216,68.0032023 350.085337,62.159337 345.773005,57.1547697 C341.582147,52.2879427 336.252009,50.8719716 330.108362,52.8829812 C326.620582,54.0271447 323.806431,56.1887504 321.393513,58.9068273" id="Fill-40" fill="#BBBBBE"></path>
                        <path d="M391.016784,99.4238043 C391.123534,88.7516793 384.834486,81.7985447 375.072383,81.4514389 C364.371616,81.0712754 358.686258,90.2962081 358.318154,98.1969966 C357.966616,105.82965 365.065491,113.162948 376.454611,113.458631 C385.180503,113.680852 390.930279,108.002275 391.016784,99.4238043 M321.257499,115.225381 C335.451568,104.235535 349.601465,93.1905927 363.856271,82.2815543 C370.695633,77.0437466 378.020891,77.6644966 385.366396,81.2181985 C389.621672,83.2769581 391.960969,86.6929197 392.883068,91.3760927 C394.773279,100.990372 392.859141,109.390698 385.057189,115.693698 C374.159486,124.4999 363.0354,133.030622 351.983094,141.645823 C351.213758,142.244535 350.247486,142.591641 349.373241,143.056285 C348.787956,142.474102 348.202672,141.893756 347.615547,141.31341 C351.090443,136.711045 351.673887,131.81116 350.392887,126.125237 C349.021702,120.037112 345.903866,115.690025 340.080469,114.184064 C333.614732,112.512814 327.104822,112.775439 322.129904,118.413612 C321.839103,117.350256 321.548301,116.288737 321.257499,115.225381" id="Fill-42" fill="#C6C6C6"></path>
                        <path d="M347.615362,141.312492 C348.202487,141.892838 348.787772,142.475021 349.373056,143.055367 C348.158315,144.473174 346.354608,144.941492 344.845384,145.879963 C334.899229,152.081953 325.08375,148.486011 318.478134,138.945194 C313.989112,132.454867 315.36766,122.157396 321.257315,115.224463 C321.548117,116.287819 321.838919,117.349338 322.12788,118.410857 C321.16897,120.576136 319.952388,122.673463 319.295324,124.926896 C316.646819,134.037963 323.226669,144.504396 332.083237,145.602646 C338.083324,146.344607 343.008548,144.800078 347.615362,141.312492" id="Fill-44" fill="#BBBBBE"></path>
                        <path d="M108.726531,97.9727552 L108.744937,97.9727552 C108.744937,98.5733033 108.72285,99.1720148 108.748618,99.7725629 C108.967639,104.751419 109.816118,105.429101 113.981208,103.148121 C116.267131,101.895601 120.029148,101.546659 119.924238,98.0351975 C119.800924,93.9378802 115.703932,93.6605629 112.906346,92.5329283 C110.068269,91.3869283 109.030217,92.3529475 108.737575,95.5705629 C108.663954,96.3676206 108.726531,97.1701879 108.726531,97.9727552 M92.025678,115.331717 C84.3433591,115.33539 83.8096091,116.273861 87.6323634,123.052524 C88.1237815,123.923044 88.6225616,124.797236 89.2115272,125.605313 C90.0986565,126.821101 91.3207599,127.776101 92.7821306,126.841303 C95.8355487,124.887226 97.1956909,121.721034 97.9631866,118.367515 C98.3276091,116.793601 97.092622,115.700861 95.6165272,115.381303 C94.4698849,115.131534 93.2275358,115.331717 92.025678,115.331717 M90.7281134,80.3713706 C92.4397944,80.270361 94.050247,80.3126014 95.6128461,80.0573225 C98.2539884,79.6183898 98.8816047,78.3860725 97.8564366,75.8332841 C97.4920142,74.922361 96.8607168,74.1179572 96.4097901,73.2364187 C95.2889151,71.0527745 93.8717168,68.6946591 91.3833375,68.5881398 C88.6538504,68.4706014 87.751997,71.3062168 86.7231478,73.3833418 C85.8010487,75.2382456 83.6973375,77.0894764 85.2654582,79.3373995 C86.5979927,81.2400533 88.9501737,80.1381302 90.7281134,80.3713706 M74.9714453,99.2546591 C73.8726565,97.1536591 75.6229884,93.3722264 73.0793935,91.8938129 C70.4529754,90.3621398 67.900178,93.1646975 65.5737642,94.499861 C60.5859625,97.3575148 60.6669453,99.1591591 65.5848073,101.794592 C66.6412642,102.360246 67.7271694,102.874476 68.7983504,103.414419 C73.2247944,105.654996 75.0910789,104.536544 74.9714453,99.2546591 M100.495738,97.5889187 C100.425799,92.0903225 96.3398504,87.528361 91.491928,87.5356983 C86.6256004,87.5412168 82.2819797,92.6155725 82.3813677,98.1802841 C82.4770746,103.645823 85.723747,107.003015 90.7796478,106.868948 C96.2496651,106.725698 100.560156,102.606342 100.495738,97.5889187 M68.8425228,109.396024 C66.6339022,109.396024 64.4197599,109.276649 62.2203418,109.425409 C59.2405444,109.629265 57.6576996,108.295938 57.3834625,105.412573 C56.9214927,100.617371 56.9785487,95.8093129 57.2951177,91.0067648 C57.4626047,88.483361 58.9810315,87.5908033 61.3074453,87.5577456 C65.120997,87.5026495 68.9419108,87.5430533 72.7444194,87.2987937 C79.0003375,86.8929187 80.4230573,85.4200148 80.9365616,79.291486 C81.186872,76.2997648 81.2015961,73.2731495 81.6635659,70.314486 C82.4623504,65.1868706 83.2795401,64.5734668 88.2655013,64.6101975 C91.0741306,64.632236 93.8864409,64.6854956 96.6895487,64.8416014 C101.220902,65.0932072 101.896372,65.7121206 102.054656,70.1932745 C102.176131,73.5927072 101.907415,77.0049956 102.023368,80.4044283 C102.200057,85.5375533 103.341178,86.7055918 108.36579,87.3263418 C111.943756,87.767111 115.5162,88.3217456 119.11073,88.5292745 C122.048195,88.698236 123.406497,90.2390918 124.037794,92.8543225 C125.138424,97.4034283 124.619398,102.020486 124.672773,106.613669 C124.6967,108.800986 123.207721,109.179313 121.438984,109.168294 C117.021743,109.144419 112.60082,109.227063 108.1891,109.092996 C102.485337,108.920361 102.262635,109.111361 101.876126,114.933188 C101.585325,119.318842 101.114152,123.697149 100.757092,128.080967 C100.633777,129.605294 100.282238,130.863323 98.3975487,130.878015 C94.1827642,130.918419 89.9698203,130.964332 85.7568763,130.991956 C83.5850659,131.002899 82.6648073,129.807313 82.151303,127.761409 C81.2107987,124.002015 81.3525185,120.207726 81.3120272,116.413438 C81.2365659,109.447448 81.0506737,109.238082 74.2610056,109.168294 C72.4554582,109.148092 70.6480703,109.166457 68.8406823,109.166457 C68.8406823,109.243592 68.8425228,109.320726 68.8425228,109.396024" id="Fill-46" fill="#6B7385"></path>
                        <path d="M321.393513,58.9068273 C323.806431,56.1887504 326.620582,54.0271447 330.108363,52.8829812 C336.252009,50.8719716 341.582147,52.2879427 345.773005,57.1547697 C350.085337,62.159337 351.506216,68.0032023 349.503733,74.3668081 C348.951578,76.1188658 348.029479,78.203337 345.404901,77.9498947 C347.484686,73.0555197 348.329483,68.151962 346.198164,62.971087 C343.984022,57.599212 338.236087,54.1336639 332.76791,55.1804908 C326.50647,56.3760773 322.254875,61.2502504 322.253035,67.2410389 C322.249354,73.503635 325.945113,77.4925966 332.000414,79.1509908 C336.811526,80.4732985 341.026311,79.0242697 345.43435,77.92051 C345.528216,78.1776254 345.646009,78.4255581 345.703065,78.6900197 C345.730673,78.8149043 345.636806,78.967337 345.598156,79.1069139 C341.27294,81.235462 337.096806,82.7616254 331.8771,81.8745773 C321.614375,80.1261927 317.344375,71.303462 320.038893,62.2199427 C320.377548,61.0831254 320.937065,60.0087504 321.393513,58.9068273" id="Fill-48" fill="#1B1A1A"></path>
                        <path d="M347.850949,131.547066 C347.21413,120.911672 342.395656,116.305633 333.741544,116.658248 C327.533479,116.911691 322.600893,120.7372 321.741371,125.692181 C320.607612,132.237604 324.671475,139.8372 330.423091,141.929018 C339.292544,145.14847 347.920888,140.009835 347.850949,131.547066 M347.615362,141.311941 C343.008548,144.801364 338.083324,146.345893 332.083237,145.602095 C323.226669,144.505681 316.646819,134.037412 319.295324,124.928181 C319.952388,122.672912 321.16897,120.575585 322.12788,118.412143 C327.106479,112.77397 333.614548,112.513181 340.080285,114.184431 C345.903681,115.690393 349.021518,120.035643 350.392703,126.125604 C351.673703,131.811527 351.090259,136.711412 347.615362,141.311941" id="Fill-50" fill="#1B1A1A"></path>
                        <path d="M374.587775,85.0109826 C366.979076,84.9726341 361.545869,90.0359706 361.483292,97.6061822 C361.413352,105.931211 368.882171,110.395836 377.718494,110.946798 C383.033908,111.281048 387.458512,105.668586 387.513727,99.4463937 C387.59655,90.2141148 382.975012,85.0516052 374.587775,85.0109826 M391.016231,99.4243552 C390.929727,108.002826 385.179951,113.679567 376.454059,113.457346 C365.066779,113.163499 357.966063,105.828365 358.319443,98.195711 C358.685706,90.2967591 364.371063,81.0699898 375.071831,81.4519898 C384.833934,81.7990956 391.122981,88.7522302 391.016231,99.4243552" id="Fill-52" fill="#1B1A1A"></path>
                        <path d="M90.9756629,90.31641 C87.3719302,90.5202658 84.471275,94.2190543 84.6792534,98.3457562 C84.8633052,102.02067 87.4050595,104.443064 90.7455983,104.134525 C94.2996371,103.809458 97.9677879,100.275958 97.8573569,97.2897466 C97.7266802,93.7378812 94.1708009,90.1345927 90.9756629,90.31641 M100.494818,97.5891023 C100.561077,102.606525 96.2505853,106.725881 90.7805681,106.869131 C85.7228267,107.003198 82.4761543,103.646006 82.3804474,98.1804677 C82.2829,92.6157562 86.6265207,87.5414004 91.4928483,87.535877 C96.3389302,87.5267081 100.424878,92.0905062 100.494818,97.5891023" id="Fill-54" fill="#1B1A1A"></path>
                        <path d="M64.683506,98.6256447 C66.2000922,99.4061735 67.4111526,100.085693 68.6663853,100.669712 C71.6406612,102.056298 72.5811655,101.472279 72.6400621,98.258337 C72.7044802,94.7468754 71.675631,94.1206158 68.3258897,95.7330966 C67.1019457,96.3189523 65.7031526,96.710135 64.683506,98.6256447 M74.9701569,99.2555773 C75.091631,104.537462 73.2253466,105.654077 68.7970621,103.415337 C67.725881,102.873558 66.6399759,102.359327 65.583519,101.79551 C60.6674974,99.1600773 60.5846741,97.3565966 65.5743164,94.4989427 C67.9007302,93.1656158 70.4516871,90.3630581 73.0799457,91.8928947 C75.6217,93.3713081 73.8713681,97.1527408 74.9701569,99.2555773" id="Fill-56" fill="#1B1A1A"></path>
                        <path d="M87.5480677,77.3359398 C90.3254082,78.1660552 92.7751366,78.0172956 95.6500246,77.2679879 C94.6984772,74.4617572 94.0506151,71.0292668 90.9677487,71.1174206 C87.8167832,71.2092475 88.3413306,74.8621225 87.5480677,77.3359398 M90.7284815,80.3699014 C88.9505418,80.136661 86.5965203,81.2385841 85.2658263,79.3359302 C83.6977056,77.0898437 85.8014168,75.2386129 86.7235159,73.3837091 C87.7523651,71.3065841 88.6542185,68.4709687 91.3837056,68.5866706 C93.8720849,68.6931898 95.2892832,71.0531418 96.4083177,73.236786 C96.8610849,74.1183245 97.4905418,74.9227283 97.8568047,75.8336514 C98.8819728,78.3864398 98.2525159,79.6187572 95.6132142,80.0558533 C94.0506151,80.3129687 92.4401625,80.2707283 90.7284815,80.3699014" id="Fill-58" fill="#1B1A1A"></path>
                        <path d="M88.0656211,117.864487 C88.1189961,121.107814 88.908578,123.897516 91.4116815,124.185852 C93.7528194,124.453987 94.3473065,121.416352 95.2417978,119.484314 C95.3908797,119.168429 95.2638841,118.725823 95.2638841,118.070179 C93.0018884,117.273122 90.7049228,117.690016 88.0656211,117.864487 M92.0264142,115.3319 C93.2264315,115.3319 94.4706211,115.131718 95.6172634,115.37965 C97.0915177,115.701045 98.3283453,116.793785 97.9639228,118.367698 C97.1945866,121.721218 95.8344444,124.88741 92.7828668,126.841487 C91.3214961,127.774448 90.0993927,126.821285 89.2122634,125.605497 C88.6214573,124.79742 88.1245177,123.923227 87.6312591,123.052708 C83.8103453,116.274045 84.3440953,115.335573 92.0264142,115.3319" id="Fill-60" fill="#1B1A1A"></path>
                        <path d="M111.375956,101.743536 C112.568611,101.232978 113.564331,100.990555 114.337348,100.434084 C115.51712,99.5874398 117.872982,99.5176514 117.318986,97.3560456 C116.888305,95.6719398 114.963124,95.3523822 113.474146,94.8693725 C111.438534,94.2118918 110.418887,95.1228148 110.433611,97.2017764 C110.444654,98.5663245 110.131766,99.9896418 111.375956,101.743536 L111.375956,101.743536 Z M108.727452,97.9731225 C108.727452,97.1705552 108.664874,96.3679879 108.738495,95.5709302 C109.029297,92.3533148 110.069189,91.3854591 112.905426,92.5314591 C115.703012,93.6609302 119.801844,93.9382475 119.925159,98.0355648 C120.028228,101.547026 116.26621,101.895969 113.982128,103.148488 C109.817038,105.427632 108.966719,104.751786 108.747697,99.7729302 C108.723771,99.1723822 108.745857,98.5718341 108.745857,97.9731225 L108.727452,97.9731225 Z" id="Fill-62" fill="#1B1A1A"></path>
                        <path d="M345.433429,77.9206937 C341.027231,79.0244533 336.810606,80.4734822 332.001334,79.1511745 C325.944192,77.4927802 322.248434,73.5038187 322.252112,67.2412225 C322.255796,61.2504341 326.507391,56.376261 332.76883,55.1806745 C338.235166,54.1338475 343.984942,57.5993956 346.197244,62.9712706 C348.328563,68.1521456 347.483766,73.0557033 345.405822,77.9500783 L345.433429,77.9206937 Z" id="Fill-64" fill="#3B53A2"></path>
                        <path d="M347.850949,131.547066 C347.920888,140.009835 339.292544,145.14847 330.423091,141.929018 C324.671475,139.8372 320.607613,132.237604 321.741371,125.692181 C322.600893,120.7372 327.533479,116.911691 333.741544,116.658248 C342.395656,116.305633 347.21413,120.911672 347.850949,131.547066" id="Fill-66" fill="#F9DA67"></path>
                        <path d="M374.587775,85.0109826 C382.975012,85.0516052 387.59655,90.2141148 387.513727,99.4463937 C387.458512,105.668586 383.033908,111.281048 377.718494,110.946798 C368.882171,110.395836 361.413352,105.931211 361.483292,97.6061822 C361.545869,90.0359706 366.979076,84.9726341 374.587775,85.0109826" id="Fill-68" fill="#EF5742"></path>
                        <path d="M90.9756629,90.31641 C94.1708009,90.1345927 97.7266802,93.7378812 97.8573569,97.2897466 C97.9677879,100.275958 94.2996371,103.809458 90.7455983,104.134525 C87.4050595,104.443064 84.8633052,102.02067 84.6792534,98.3457562 C84.471275,94.2190543 87.3719302,90.5202658 90.9756629,90.31641" id="Fill-70" fill="#6B7385"></path>
                        <path d="M64.683506,98.6256447 C65.7031526,96.710135 67.1019457,96.3189523 68.3258897,95.7330966 C71.675631,94.1206158 72.7044802,94.7468754 72.6400621,98.258337 C72.5811655,101.472279 71.6406612,102.056298 68.6663853,100.669712 C67.4111526,100.085693 66.2000922,99.4061735 64.683506,98.6256447" id="Fill-72" fill="#6B6C6C"></path>
                        <path d="M87.5480677,77.3359398 C88.3413306,74.8621225 87.8167832,71.2092475 90.9677487,71.1174206 C94.0506151,71.0292668 94.6984772,74.4617572 95.6500246,77.2679879 C92.7751366,78.0172956 90.3254082,78.1660552 87.5480677,77.3359398" id="Fill-74" fill="#6B6C6C"></path>
                        <path d="M88.0656211,117.864487 C90.7049228,117.690016 93.0018884,117.273122 95.2638841,118.070179 C95.2638841,118.725823 95.3908797,119.168429 95.2417978,119.484314 C94.3473065,121.416352 93.7528194,124.453987 91.4116815,124.185852 C88.908578,123.897516 88.1189961,121.107814 88.0656211,117.864487" id="Fill-76" fill="#6B6C6C"></path>
                        <path d="M111.375956,101.743536 C110.131766,99.9896418 110.444654,98.5663245 110.433611,97.2017764 C110.418887,95.1228148 111.438534,94.2118918 113.474146,94.8693725 C114.963124,95.3523822 116.888305,95.6719398 117.318986,97.3560456 C117.872982,99.5176514 115.51712,99.5874398 114.337348,100.434084 C113.564331,100.990555 112.568611,101.232978 111.375956,101.743536" id="Fill-78" fill="#6B6C6C"></path>
                    </g>
                </g>
            </g>
        </g>
    </g>
</svg>